<?xml version="1.0" encoding="UTF-8" standalone="no"?>
<!-- Created with Inkscape (http://www.inkscape.org/) -->

<svg
   xmlns:dc="http://purl.org/dc/elements/1.1/"
   xmlns:cc="http://creativecommons.org/ns#"
   xmlns:rdf="http://www.w3.org/1999/02/22-rdf-syntax-ns#"
   xmlns:svg="http://www.w3.org/2000/svg"
   xmlns="http://www.w3.org/2000/svg"
   xmlns:sodipodi="http://sodipodi.sourceforge.net/DTD/sodipodi-0.dtd"
   xmlns:inkscape="http://www.inkscape.org/namespaces/inkscape"
   width="58"
   height="58"
   viewBox="0 0 15.345834 15.345833"
   version="1.1"
   id="svg4523"
   inkscape:version="0.92.1 r15371"
   sodipodi:docname="awake-inactive-with-outline-58x58.svg"
   inkscape:export-filename="C:\Users\mcllauren\Google Drive\TechSymphonic\Baby-button-bar\images\Icons-March-2017\awake-inactive-with-outline-58x58.png"
   inkscape:export-xdpi="96"
   inkscape:export-ydpi="96">
  <defs
     id="defs4517" />
  <sodipodi:namedview
     id="base"
     pagecolor="#ffffff"
     bordercolor="#666666"
     borderopacity="1.0"
     inkscape:pageopacity="0.0"
     inkscape:pageshadow="2"
     inkscape:zoom="6.18"
     inkscape:cx="-32.860664"
     inkscape:cy="34.150887"
     inkscape:document-units="mm"
     inkscape:current-layer="layer1"
     showgrid="false"
     units="px"
     inkscape:window-width="1680"
     inkscape:window-height="987"
     inkscape:window-x="-8"
     inkscape:window-y="-8"
     inkscape:window-maximized="1" />
  <metadata
     id="metadata4520">
    <rdf:RDF>
      <cc:Work
         rdf:about="">
        <dc:format>image/svg+xml</dc:format>
        <dc:type
           rdf:resource="http://purl.org/dc/dcmitype/StillImage" />
        <dc:title />
      </cc:Work>
    </rdf:RDF>
  </metadata>
  <g
     inkscape:label="Layer 1"
     inkscape:groupmode="layer"
     id="layer1"
     transform="translate(0,-281.65415)">
    <path
       style="fill:#000000;stroke-width:0.03113803"
       d=""
       id="path5649"
       inkscape:connector-curvature="0" />
    <path
       style="fill:#000000;stroke-width:0.04409722"
       d=""
       id="path5664"
       inkscape:connector-curvature="0" />
    <path
       style="fill:#000000;stroke-width:0.04409722"
       d=""
       id="path5662"
       inkscape:connector-curvature="0" />
    <path
       style="fill:#000000;stroke-width:0.04246399"
       d=""
       id="path5681"
       inkscape:connector-curvature="0" />
    <path
       style="fill:#000000;stroke-width:0.04246399"
       d=""
       id="path5679"
       inkscape:connector-curvature="0" />
    <path
       style="fill:#000000;stroke-width:0.04246399"
       d=""
       id="path5677"
       inkscape:connector-curvature="0" />
    <path
       style="fill:#000000;stroke-width:0.04246399"
       d=""
       id="path5696"
       inkscape:connector-curvature="0" />
    <path
       style="fill:#000000;stroke:#000000;stroke-width:0.04246399;stroke-opacity:0.79487179"
       d=""
       id="path5694"
       inkscape:connector-curvature="0" />
    <path
       style="fill:#000000;stroke-width:0.02933487"
       d=""
       id="path5711"
       inkscape:connector-curvature="0" />
    <path
       style="fill:#000000;stroke-width:0.02933487"
       d=""
       id="path5709"
       inkscape:connector-curvature="0" />
    <path
       style="fill:#45b2ff;fill-opacity:1;stroke:#45b2ff;stroke-width:0.05520872;stroke-opacity:1"
       d="m 6.3194982,293.37159 c -1.3163333,-0.24706 -2.4231611,-0.82984 -3.2764436,-1.72514 -0.6685411,-0.70147 -1.2856831,-1.78961 -1.2856831,-2.26692 0,-0.24829 0.3527172,-1.0331 0.6775831,-1.50768 0.9267515,-1.3538 2.3126928,-2.20515 4.0680777,-2.49892 0.6162352,-0.10314 1.9425743,-0.087 2.5694736,0.0315 0.9379691,0.17708 1.8713831,0.57522 2.5694741,1.09598 0.947844,0.70703 1.966433,2.19981 1.966433,2.88186 0,0.49352 -0.552367,1.48333 -1.239795,2.22162 -0.874089,0.93876 -1.971348,1.51792 -3.3485506,1.76749 -0.5799737,0.10508 -2.1412018,0.10523 -2.7005692,2.3e-4 z m 1.8521397,-1.33805 c 0.6713478,-0.19384 1.1478826,-0.64415 1.487344,-1.40549 l 0.2000973,-0.44879 v -0.78771 c 0,-0.78753 -4.51e-5,-0.78782 -0.1932379,-1.23819 -0.751896,-1.75289 -2.7086302,-2.00261 -3.6942957,-0.47152 -0.3216652,0.49967 -0.4500226,0.92073 -0.4792913,1.57225 -0.03073,0.6841 0.101608,1.21568 0.4420462,1.77567 0.3218917,0.52948 0.7094289,0.84341 1.234561,1.00008 0.364885,0.10886 0.635083,0.10985 1.0027764,0.004 z M 4.719118,291.26308 c -0.2714328,-0.718 -0.3113124,-0.96307 -0.3097971,-1.9036 0.00144,-0.89686 0.00735,-0.94756 0.1659954,-1.42286 0.090473,-0.27106 0.1548723,-0.50351 0.1431091,-0.51655 -0.045861,-0.0509 -0.732277,0.49563 -1.0281101,0.81851 -0.1715812,0.18725 -0.4182603,0.52262 -0.5481749,0.74523 l -0.236209,0.40473 0.2304295,0.39484 c 0.2782092,0.47671 0.6724152,0.91825 1.1593794,1.29857 0.3864516,0.3018 0.4849246,0.34394 0.4233777,0.18113 z m 6.326955,-0.1438 c 0.427634,-0.31462 1.018046,-0.97939 1.244675,-1.40145 l 0.176825,-0.32929 -0.176825,-0.3293 c -0.23056,-0.42938 -0.838729,-1.11396 -1.253731,-1.41128 -0.18093,-0.12962 -0.346093,-0.23568 -0.367028,-0.23568 -0.02093,0 0.02863,0.21577 0.110141,0.47953 0.348828,1.1287 0.304112,2.27509 -0.131497,3.37127 -0.063,0.15855 0.03443,0.12328 0.39744,-0.1438 z"
       id="path5715"
       inkscape:connector-curvature="0" />
    <circle
       style="fill:none;fill-opacity:1;stroke:#45b2ff;stroke-width:0.43632716;stroke-miterlimit:4;stroke-dasharray:none;stroke-opacity:1"
       id="path5717"
       cx="7.6828923"
       cy="289.37759"
       r="7.4547529" />
    <ellipse
       style="fill:none;fill-opacity:1;stroke:#45b2ff;stroke-width:1.31550109;stroke-miterlimit:4;stroke-dasharray:none;stroke-opacity:1"
       id="path5719"
       cx="7.6828923"
       cy="289.37759"
       rx="2.7334569"
       ry="3.2480309" />
  </g>
</svg>
