<?xml version="1.0" encoding="UTF-8" standalone="no"?>
<!-- Created with Inkscape (http://www.inkscape.org/) -->

<svg
   xmlns:dc="http://purl.org/dc/elements/1.1/"
   xmlns:cc="http://creativecommons.org/ns#"
   xmlns:rdf="http://www.w3.org/1999/02/22-rdf-syntax-ns#"
   xmlns:svg="http://www.w3.org/2000/svg"
   xmlns="http://www.w3.org/2000/svg"
   xmlns:sodipodi="http://sodipodi.sourceforge.net/DTD/sodipodi-0.dtd"
   xmlns:inkscape="http://www.inkscape.org/namespaces/inkscape"
   width="78"
   height="78"
   viewBox="0 0 20.6375 20.637501"
   version="1.1"
   id="svg5055"
   inkscape:version="0.92.1 r15371"
   sodipodi:docname="bottle-feeding-78x78.svg">
  <defs
     id="defs5049" />
  <sodipodi:namedview
     id="base"
     pagecolor="#ffffff"
     bordercolor="#666666"
     borderopacity="1.0"
     inkscape:pageopacity="0.0"
     inkscape:pageshadow="2"
     inkscape:zoom="5.3625915"
     inkscape:cx="38.140952"
     inkscape:cy="37.327358"
     inkscape:document-units="mm"
     inkscape:current-layer="layer1"
     showgrid="false"
     inkscape:window-width="932"
     inkscape:window-height="620"
     inkscape:window-x="493"
     inkscape:window-y="44"
     inkscape:window-maximized="0"
     units="px" />
  <metadata
     id="metadata5052">
    <rdf:RDF>
      <cc:Work
         rdf:about="">
        <dc:format>image/svg+xml</dc:format>
        <dc:type
           rdf:resource="http://purl.org/dc/dcmitype/StillImage" />
        <dc:title></dc:title>
      </cc:Work>
    </rdf:RDF>
  </metadata>
  <g
     inkscape:label="Layer 1"
     inkscape:groupmode="layer"
     id="layer1"
     transform="translate(0,-276.36248)">
    <circle
       style="fill:none;fill-opacity:1;stroke:none;stroke-width:0.09782834;stroke-opacity:0.8"
       id="path12"
       cx="10.321589"
       cy="286.72885"
       r="10.269836"
       inkscape:export-filename="C:\Users\mcllauren\Google Drive\TechSymphonic\Baby-button-bar\images\Icons-March-2017\bottle-78x78.png"
       inkscape:export-xdpi="96"
       inkscape:export-ydpi="96" />
    <g
       style="clip-rule:evenodd;fill:#666666;fill-rule:evenodd;stroke-linejoin:round;stroke-miterlimit:1.41420996"
       id="g828"
       transform="matrix(0.07098876,0,0,0.0678902,6.3513249,278.52676)"
       inkscape:export-filename="C:\Users\mcllauren\Google Drive\TechSymphonic\Baby-button-bar\images\Icons-March-2017\bottle-78x78.png"
       inkscape:export-xdpi="96"
       inkscape:export-ydpi="96">
      <path
         inkscape:connector-curvature="0"
         d="M 22.714,43.283 22.698,43.236 22.676,43.172 22.65,43.091 22.619,42.993 22.585,42.878 22.567,42.816 22.548,42.749 22.528,42.678 22.508,42.604 22.487,42.527 22.466,42.446 22.445,42.361 22.423,42.273 22.401,42.182 22.379,42.087 22.358,41.99 22.336,41.889 22.314,41.785 22.292,41.679 22.271,41.569 22.25,41.457 22.23,41.341 22.21,41.224 22.19,41.103 22.171,40.98 22.153,40.855 22.136,40.727 22.123,40.623 22.12,40.597 22.117,40.575 22.104,40.465 22.093,40.359 22.09,40.33 22.087,40.305 22.076,40.194 22.064,40.055 22.053,39.914 22.043,39.772 22.039,39.7 22.035,39.628 22.031,39.555 22.028,39.482 22.025,39.408 22.023,39.346 v -0.012 l -0.002,-0.075 v 0 l -0.002,-0.075 -10e-4,-0.075 -0.001,-0.076 -0.001,-0.076 v -0.076 l 0.001,-0.077 0.002,-0.154 0.002,-0.078 0.003,-0.078 0.002,-0.06 0.001,-0.019 v -0.008 l 0.003,-0.07 0.004,-0.079 0.005,-0.079 0.002,-0.034 0.003,-0.046 0.001,-0.011 0.004,-0.068 0.006,-0.08 0.007,-0.081 0.007,-0.08 0.008,-0.081 0.008,-0.072 10e-4,-0.009 0.002,-0.022 0.016,-0.14 0.011,-0.082 0.008,-0.061 0.003,-0.021 10e-4,-0.008 0.01,-0.074 0.01,-0.061 0.003,-0.021 0.003,-0.02 0.009,-0.062 0.014,-0.082 0.014,-0.083 0.015,-0.082 0.007,-0.038 0.009,-0.045 0.009,-0.046 0.007,-0.037 0.017,-0.083 0.012,-0.058 0.006,-0.025 0.003,-0.015 0.015,-0.068 0.012,-0.051 c 0.012,-0.053 0.025,-0.105 0.038,-0.157 l 0.01,-0.042 0.021,-0.08 0.001,-0.004 0.002,-0.008 0.02,-0.075 0.023,-0.084 0.024,-0.083 0.012,-0.042 0.013,-0.042 0.007,-0.023 0.018,-0.06 0.012,-0.037 0.015,-0.047 0.026,-0.08 0.001,-0.004 0.003,-0.008 c 0.019,-0.059 0.039,-0.118 0.06,-0.177 l 0.023,-0.065 0.031,-0.084 0.012,-0.03 c 0.02,-0.054 0.041,-0.108 0.062,-0.162 l 0.023,-0.058 0.034,-0.083 0.02,-0.045 c 0.036,-0.087 0.074,-0.173 0.114,-0.259 l 0.012,-0.027 0.039,-0.083 0.04,-0.083 0.03,-0.06 c 0.042,-0.085 0.086,-0.17 0.132,-0.254 l 0.007,-0.014 0.045,-0.082 0.008,-0.014 c 0.129,-0.232 0.271,-0.462 0.427,-0.689 l 0.015,-0.023 0.008,-0.012 0.048,-0.068 0.041,-0.058 0.015,-0.021 0.056,-0.076 c 0.091,-0.123 0.186,-0.246 0.286,-0.367 l 0.021,-0.026 0.041,-0.048 c 0.122,-0.146 0.251,-0.29 0.386,-0.432 l 0.05,-0.052 0.036,-0.036 c 0.049,-0.05 0.099,-0.1 0.15,-0.149 l 0.037,-0.037 0.077,-0.073 0.078,-0.073 0.034,-0.031 c 0.169,-0.154 0.347,-0.305 0.533,-0.452 l 0.017,-0.014 0.047,-0.036 c 0.096,-0.075 0.194,-0.149 0.295,-0.221 l 0.021,-0.016 0.094,-0.067 0.04,-0.028 c 0.141,-0.097 0.286,-0.193 0.436,-0.288 l 0.016,-0.01 0.103,-0.064 0.037,-0.022 c 0.065,-0.04 0.131,-0.079 0.198,-0.118 l 0.082,-0.047 0.108,-0.061 0.057,-0.031 0.053,-0.029 0.105,-0.056 0.007,-0.004 0.029,-0.015 0.084,-0.044 0.037,-0.019 0.078,-0.04 0.03,-0.015 0.086,-0.042 0.1,-0.049 0.018,-0.009 0.034,-0.016 c 0.284,-0.135 0.581,-0.265 0.892,-0.387 l 0.072,-0.029 0.03,-0.012 c 0.146,-0.056 0.295,-0.111 0.447,-0.165 l 0.06,-0.021 0.047,-0.016 c 0.19,-0.065 0.384,-0.128 0.583,-0.189 l 0.08,-0.025 0.072,-0.021 0.074,-0.022 0.071,-0.02 0.078,-0.023 0.151,-0.042 0.152,-0.041 0.154,-0.04 0.155,-0.039 0.098,-0.023 0.059,-0.015 0.044,-0.01 0.116,-0.028 0.143,-0.032 0.017,-0.004 0.016,-0.003 0.147,-0.033 0.109,-0.023 0.056,-0.011 0.13,-0.027 0.036,-0.007 0.168,-0.033 0.17,-0.032 0.172,-0.031 0.174,-0.03 0.175,-0.029 0.178,-0.028 0.179,-0.027 0.128,-0.018 c 0.199,-0.028 0.401,-0.054 0.607,-0.079 l 0.161,-0.02 0.158,-0.02 0.157,-0.021 0.155,-0.021 0.154,-0.022 0.151,-0.022 0.15,-0.023 0.148,-0.024 0.147,-0.024 0.145,-0.025 0.143,-0.025 0.142,-0.026 0.14,-0.026 h 0.001 l 0.137,-0.027 0.137,-0.028 0.135,-0.028 0.116,-0.024 c 0.074,-0.016 0.147,-0.032 0.219,-0.049 l 0.061,-0.014 0.11,-0.026 0.018,-0.004 0.015,-0.004 0.113,-0.027 0.125,-0.031 0.124,-0.032 0.123,-0.032 0.121,-0.033 0.119,-0.033 0.118,-0.034 0.076,-0.022 c 0.131,-0.039 0.259,-0.079 0.385,-0.119 l 0.107,-0.036 0.069,-0.023 0.039,-0.013 0.036,-0.012 0.072,-0.026 0.09,-0.032 0.016,-0.005 0.018,-0.007 0.087,-0.032 0.086,-0.032 0.017,-0.006 0.015,-0.006 0.087,-0.034 0.1,-0.039 0.089,-0.036 0.01,-0.004 0.006,-0.002 0.092,-0.039 0.096,-0.041 0.041,-0.018 c 0.054,-0.023 0.108,-0.047 0.161,-0.072 l 0.078,-0.036 0.091,-0.043 0.089,-0.043 0.088,-0.044 0.087,-0.044 0.037,-0.019 0.048,-0.025 0.045,-0.024 0.04,-0.022 0.082,-0.045 0.082,-0.046 0.08,-0.046 0.079,-0.047 0.064,-0.038 0.014,-0.009 0.007,-0.005 0.069,-0.043 0.075,-0.048 0.074,-0.048 0.073,-0.049 0.071,-0.049 0.071,-0.05 0.069,-0.05 0.068,-0.05 0.066,-0.051 0.066,-0.051 0.064,-0.051 0.063,-0.052 0.062,-0.052 0.061,-0.053 0.06,-0.053 0.058,-0.053 0.058,-0.054 0.056,-0.054 0.056,-0.055 0.02,-0.02 c 0.042,-0.043 0.083,-0.085 0.123,-0.128 l 0.016,-0.017 0.051,-0.056 0.05,-0.056 0.004,-0.005 0.045,-0.051 0.024,-0.03 0.023,-0.027 0.047,-0.057 0.046,-0.058 0.017,-0.022 0.028,-0.035 0.016,-0.022 0.027,-0.037 0.043,-0.058 0.042,-0.059 0.041,-0.059 0.039,-0.059 0.039,-0.06 0.038,-0.06 0.037,-0.06 0.036,-0.06 0.035,-0.061 0.034,-0.061 0.034,-0.062 0.032,-0.061 0.007,-0.014 0.025,-0.048 0.023,-0.047 0.007,-0.015 0.03,-0.063 0.029,-0.063 0.028,-0.063 0.027,-0.063 0.026,-0.063 0.012,-0.03 0.014,-0.034 0.008,-0.022 0.016,-0.042 0.024,-0.065 0.023,-0.064 0.022,-0.065 0.022,-0.065 0.011,-0.034 c 0.019,-0.061 0.038,-0.123 0.055,-0.185 l 0.012,-0.043 0.014,-0.05 0.004,-0.016 0.016,-0.061 0.001,-0.006 0.016,-0.066 0.015,-0.067 0.015,-0.067 0.014,-0.067 0.009,-0.042 0.005,-0.025 0.004,-0.022 0.008,-0.046 0.012,-0.068 0.012,-0.066 v -0.002 -0.003 l 0.01,-0.065 0.007,-0.046 0.004,-0.022 0.006,-0.044 0.003,-0.025 0.003,-0.019 0.013,-0.107 10e-4,-0.011 0.007,-0.069 0.007,-0.07 0.005,-0.049 0.008,-0.089 0.006,-0.092 0.003,-0.048 0.003,-0.037 0.004,-0.082 0.001,-0.021 0.003,-0.066 v -0.007 l 0.002,-0.068 0.002,-0.071 0.002,-0.07 v -0.005 l 10e-4,-0.101 V 20.8 l -10e-4,-0.072 -0.001,-0.071 -10e-4,-0.072 -0.002,-0.057 -0.002,-0.086 -0.004,-0.094 -0.003,-0.05 -0.002,-0.052 -0.005,-0.092 -0.002,-0.032 -0.003,-0.04 -0.005,-0.072 -0.011,-0.145 -0.012,-0.145 -0.014,-0.146 -0.015,-0.146 -0.004,-0.041 -0.012,-0.105 -0.012,-0.1 -0.006,-0.046 -0.019,-0.146 -0.02,-0.147 -0.016,-0.12 -0.004,-0.027 -0.01,-0.07 L 43.076,18.549 43.053,18.402 43.03,18.255 43.006,18.108 43,18.072 42.982,17.961 42.972,17.905 42.956,17.814 42.935,17.689 42.931,17.667 42.891,17.446 42.878,17.373 42.824,17.08 42.77,16.787 42.716,16.495 42.662,16.204 42.609,15.915 42.584,15.77 42.558,15.626 42.534,15.483 42.525,15.427 42.51,15.34 42.502,15.292 42.486,15.198 42.463,15.056 42.444,14.929 C 42.435,14.87 42.426,14.81 42.418,14.751 L 42.401,14.633 42.382,14.493 42.364,14.354 42.347,14.216 42.332,14.078 42.318,13.941 42.305,13.804 42.294,13.669 42.289,13.601 42.286,13.543 42.285,13.534 42.284,13.526 42.28,13.467 42.277,13.411 V 13.4 L 42.276,13.386 42.273,13.333 42.27,13.267 42.268,13.201 42.267,13.174 42.266,13.135 42.265,13.113 42.264,13.069 42.263,13.01 v -0.007 -0.005 l -10e-4,-0.06 v -0.137 l 10e-4,-0.072 0.003,-0.063 c 0.002,-0.058 0.004,-0.116 0.008,-0.174 l 0.003,-0.052 0.006,-0.073 0.006,-0.072 0.007,-0.073 0.008,-0.073 0.009,-0.073 0.01,-0.073 0.01,-0.073 0.011,-0.066 c 0.009,-0.06 0.02,-0.12 0.031,-0.18 l 0.008,-0.047 0.01,-0.049 0.005,-0.024 0.013,-0.063 0.002,-0.011 0.004,-0.017 0.012,-0.056 0.003,-0.015 0.013,-0.059 0.015,-0.062 0.003,-0.011 0.008,-0.035 0.01,-0.039 0.019,-0.074 0.007,-0.024 0.013,-0.05 0.01,-0.037 0.01,-0.037 0.021,-0.074 0.022,-0.074 0.022,-0.074 0.021,-0.065 0.003,-0.009 0.01,-0.029 0.014,-0.045 0.024,-0.074 0.024,-0.07 0.028,-0.078 0.009,-0.026 0.017,-0.049 0.022,-0.057 0.006,-0.017 0.03,-0.08 0.026,-0.068 0.03,-0.075 0.006,-0.015 0.024,-0.059 0.01,-0.025 0.02,-0.05 0.031,-0.074 0.032,-0.074 0.033,-0.075 0.033,-0.074 0.029,-0.063 0.005,-0.012 0.003,-0.007 0.031,-0.067 0.025,-0.053 0.01,-0.021 0.005,-0.011 0.03,-0.064 0.026,-0.051 0.011,-0.023 0.012,-0.025 0.024,-0.05 L 43.296,9.064 43.307,9.043 43.32,9.016 43.344,8.969 43.383,8.894 43.422,8.82 43.461,8.745 43.499,8.676 43.513,8.651 43.542,8.597 43.583,8.523 43.625,8.448 43.667,8.374 43.753,8.226 43.79,8.165 43.797,8.152 43.806,8.137 43.841,8.078 43.875,8.022 43.886,8.004 43.897,7.986 43.931,7.93 43.969,7.868 43.977,7.856 43.984,7.844 44.023,7.782 44.117,7.634 44.165,7.56 44.209,7.492 44.262,7.413 44.306,7.346 44.311,7.339 44.328,7.314 44.36,7.266 44.441,7.147 44.46,7.119 44.496,7.068 44.562,6.973 44.589,6.935 44.613,6.9 44.661,6.833 44.665,6.827 44.688,6.795 44.77,6.681 44.877,6.535 44.985,6.39 44.993,6.379 c 0.221,-0.294 0.451,-0.586 0.688,-0.874 l 0.099,-0.12 0.017,-0.021 0.101,-0.12 0.089,-0.105 0.031,-0.037 0.043,-0.05 C 46.225,4.861 46.391,4.671 46.56,4.483 L 46.63,4.405 46.755,4.268 46.81,4.209 46.881,4.131 46.925,4.084 47.008,3.994 47.061,3.937 C 47.17,3.821 47.28,3.705 47.391,3.59 L 47.47,3.507 47.49,3.486 47.54,3.435 47.59,3.384 47.641,3.333 47.691,3.283 47.73,3.245 47.759,3.217 47.794,3.183 47.845,3.134 47.897,3.085 47.949,3.037 47.978,3.01 C 48.022,2.97 48.067,2.93 48.111,2.89 L 48.161,2.846 48.214,2.799 48.268,2.753 48.322,2.707 48.376,2.661 48.428,2.618 48.431,2.616 48.448,2.602 48.486,2.571 48.541,2.526 48.596,2.482 48.652,2.438 48.708,2.394 48.764,2.351 48.82,2.308 48.87,2.271 48.876,2.266 48.885,2.26 48.933,2.224 48.99,2.182 49.048,2.141 49.105,2.1 l 0.058,-0.041 0.058,-0.04 0.058,-0.04 0.038,-0.025 0.021,-0.014 0.015,-0.01 0.043,-0.03 0.059,-0.038 0.059,-0.039 0.06,-0.038 0.059,-0.037 0.06,-0.038 0.06,-0.036 0.06,-0.037 0.061,-0.036 0.06,-0.036 0.061,-0.035 0.061,-0.035 0.062,-0.035 0.061,-0.034 0.062,-0.034 0.033,-0.018 0.029,-0.015 0.104,-0.055 0.02,-0.011 0.062,-0.032 0.047,-0.024 0.016,-0.008 0.009,-0.004 0.054,-0.028 0.063,-0.031 0.063,-0.031 0.058,-0.027 0.006,-0.003 0.009,-0.004 0.054,-0.026 0.064,-0.03 0.128,-0.058 0.064,-0.028 0.13,-0.056 0.064,-0.027 0.065,-0.027 0.066,-0.026 0.065,-0.026 0.065,-0.026 0.066,-0.025 0.066,-0.025 0.066,-0.024 0.066,-0.024 0.066,-0.024 0.067,-0.023 0.054,-0.018 0.025,-0.009 0.054,-0.018 0.067,-0.022 0.041,-0.013 C 52.271,0.529 52.325,0.512 52.379,0.495 L 52.445,0.475 52.495,0.461 52.512,0.456 52.538,0.448 52.58,0.436 52.716,0.398 52.784,0.38 52.852,0.362 52.92,0.345 52.989,0.328 53.057,0.311 53.126,0.295 53.195,0.279 53.333,0.249 53.402,0.235 53.42,0.231 53.471,0.221 53.502,0.215 53.541,0.207 53.61,0.194 53.68,0.181 53.73,0.172 53.75,0.169 53.793,0.162 53.82,0.157 53.889,0.145 53.96,0.134 54.007,0.127 C 54.121,0.11 54.235,0.095 54.349,0.081 L 54.382,0.077 54.452,0.069 54.481,0.066 54.55,0.059 54.594,0.054 54.648,0.049 54.682,0.046 54.736,0.041 54.781,0.038 54.848,0.033 54.878,0.03 54.949,0.025 54.994,0.022 55.02,0.021 55.15,0.014 55.163,0.013 55.234,0.01 55.306,0.007 55.377,0.005 55.449,0.003 55.592,0.001 H 55.62 L 55.664,0 h 0.071 l 0.044,0.001 0.099,0.001 0.066,0.001 0.077,0.002 0.072,0.002 0.071,0.002 0.045,0.003 0.086,0.004 h 0.011 l 0.142,0.008 0.071,0.005 0.039,0.003 0.032,0.003 0.031,0.002 0.04,0.003 0.07,0.006 0.142,0.014 0.026,0.003 0.066,0.007 0.049,0.005 0.075,0.01 0.065,0.008 0.08,0.01 0.06,0.008 0.071,0.01 0.061,0.01 0.008,0.001 0.044,0.007 0.096,0.015 0.07,0.012 0.069,0.012 0.07,0.013 0.037,0.007 0.032,0.006 0.012,0.002 0.057,0.011 0.07,0.014 0.059,0.013 0.019,0.004 0.06,0.012 0.068,0.015 0.138,0.032 0.068,0.016 0.069,0.017 0.05,0.013 0.018,0.005 0.021,0.005 0.047,0.012 0.068,0.018 0.204,0.057 0.134,0.04 0.056,0.017 0.012,0.004 0.025,0.008 0.109,0.034 0.067,0.022 0.066,0.022 0.067,0.023 0.035,0.012 0.031,0.011 0.011,0.004 0.056,0.019 0.132,0.048 0.066,0.025 0.065,0.025 0.048,0.019 c 0.104,0.041 0.208,0.083 0.311,0.127 l 0.032,0.013 0.065,0.028 0.064,0.028 0.06,0.027 0.132,0.06 0.064,0.03 0.041,0.02 0.022,0.011 0.036,0.017 0.027,0.013 0.064,0.031 0.063,0.032 0.019,0.01 0.043,0.022 0.052,0.026 0.011,0.006 0.062,0.032 0.062,0.033 0.03,0.016 c 0.059,0.032 0.119,0.065 0.177,0.098 l 0.04,0.022 0.051,0.029 0.071,0.041 0.122,0.072 0.037,0.023 c 0.056,0.034 0.112,0.068 0.167,0.103 l 0.036,0.022 0.06,0.038 0.067,0.044 c 0.065,0.042 0.129,0.086 0.194,0.129 l 0.033,0.023 0.058,0.04 0.117,0.082 0.056,0.041 0.022,0.016 0.036,0.026 0.022,0.017 0.035,0.025 0.027,0.021 0.029,0.022 0.028,0.02 0.029,0.022 0.033,0.026 0.023,0.018 0.036,0.027 0.02,0.016 0.056,0.044 0.008,0.007 0.088,0.071 0.015,0.011 0.055,0.045 0.043,0.036 c 0.084,0.07 0.167,0.141 0.249,0.213 l 0.033,0.029 0.034,0.031 0.019,0.017 0.061,0.056 0.045,0.04 0.03,0.028 0.075,0.07 0.039,0.037 0.012,0.012 0.052,0.05 c 0.116,0.111 0.233,0.223 0.348,0.335 l 0.088,0.086 0.144,0.142 0.014,0.014 0.129,0.129 0.143,0.143 0.142,0.144 0.096,0.099 c 0.105,0.108 0.209,0.216 0.313,0.325 l 0.012,0.013 0.022,0.023 c 0.431,0.456 0.848,0.921 1.242,1.393 l 0.064,0.076 0.125,0.152 0.062,0.076 0.051,0.064 0.01,0.012 0.017,0.021 0.044,0.055 0.037,0.046 0.024,0.031 0.027,0.035 0.093,0.117 0.087,0.113 0.031,0.041 0.027,0.035 0.031,0.041 0.04,0.053 c 0.052,0.07 0.104,0.139 0.155,0.209 l 0.034,0.045 0.043,0.06 0.013,0.017 0.015,0.022 0.04,0.055 0.045,0.064 c 0.045,0.064 0.09,0.128 0.134,0.191 l 0.09,0.131 0.046,0.068 c 0.062,0.093 0.123,0.186 0.183,0.279 l 0.026,0.04 0.049,0.077 0.049,0.078 0.048,0.077 0.028,0.047 0.066,0.108 0.07,0.118 0.022,0.037 0.045,0.078 0.044,0.077 c 0.04,0.071 0.08,0.142 0.118,0.213 l 0.011,0.02 0.012,0.022 0.029,0.055 0.03,0.056 0.011,0.021 0.008,0.016 0.033,0.062 0.025,0.051 0.014,0.026 0.029,0.058 0.01,0.02 0.01,0.02 0.028,0.057 0.021,0.043 0.016,0.034 0.019,0.039 0.018,0.038 0.033,0.072 c 0.038,0.082 0.074,0.163 0.109,0.245 l 0.03,0.069 0.032,0.077 0.031,0.077 0.024,0.059 0.007,0.018 0.003,0.009 c 0.33,0.843 0.516,1.675 0.516,2.479 0,0.1 -0.002,0.2 -0.005,0.301 l -0.001,0.027 -0.001,0.013 c -0.025,0.7 -0.125,1.436 -0.252,2.192 l -0.013,0.077 -0.008,0.048 -0.017,0.095 -0.02,0.117 -0.005,0.027 -0.008,0.045 c -0.106,0.592 -0.223,1.194 -0.329,1.798 l -0.01,0.054 -0.005,0.029 c -0.058,0.327 -0.112,0.654 -0.159,0.98 l -0.003,0.02 -0.01,0.071 c -0.065,0.458 -0.116,0.914 -0.144,1.365 l -0.001,0.022 -0.001,0.014 -0.007,0.129 v 10e-4 0.001 l -0.006,0.133 v 0.01 l -0.001,0.013 -0.004,0.131 -0.002,0.123 v 0.019 0.009 l -0.001,0.134 0.001,0.053 v 0.018 0.01 l 0.001,0.061 0.002,0.114 0.001,0.04 0.005,0.128 0.006,0.108 0.002,0.039 0.008,0.114 0.002,0.018 0.001,0.019 0.01,0.109 0.004,0.045 c 0.01,0.096 0.021,0.191 0.034,0.286 l 0.004,0.025 0.013,0.086 0.008,0.05 0.009,0.054 0.014,0.082 0.013,0.068 0.012,0.06 c 0.006,0.031 0.012,0.062 0.019,0.093 l 0.016,0.068 0.01,0.047 0.007,0.026 0.01,0.04 0.008,0.035 c 0.01,0.038 0.02,0.076 0.031,0.114 l 0.033,0.116 0.033,0.109 0.007,0.021 0.008,0.024 0.036,0.106 0.023,0.064 0.024,0.065 0.043,0.109 c 0.048,0.121 0.102,0.242 0.16,0.36 l 0.036,0.072 0.013,0.026 0.007,0.014 0.026,0.047 0.033,0.062 0.034,0.061 0.009,0.015 0.026,0.046 0.019,0.031 0.017,0.029 0.037,0.06 0.038,0.06 0.039,0.06 0.08,0.118 0.042,0.059 0.043,0.058 0.044,0.059 0.044,0.057 0.021,0.027 0.025,0.031 0.015,0.018 0.032,0.039 0.048,0.057 0.098,0.112 0.024,0.027 c 0.036,0.039 0.073,0.078 0.11,0.117 l 0.023,0.023 0.109,0.109 0.033,0.032 0.023,0.022 0.032,0.03 0.026,0.024 0.025,0.023 0.033,0.03 0.026,0.023 0.034,0.03 0.032,0.028 0.029,0.025 0.03,0.025 0.032,0.027 0.032,0.027 0.031,0.025 0.03,0.024 0.034,0.027 0.066,0.051 0.067,0.051 0.067,0.05 0.14,0.1 0.071,0.049 0.073,0.049 0.074,0.048 0.075,0.048 0.06,0.038 0.016,0.01 0.031,0.018 0.047,0.029 0.079,0.047 0.08,0.046 0.082,0.046 0.083,0.045 0.08,0.044 0.015,0.008 0.074,0.038 0.087,0.044 0.088,0.044 0.089,0.043 0.091,0.043 0.073,0.034 c 0.056,0.026 0.113,0.051 0.171,0.077 l 0.036,0.015 0.096,0.041 0.081,0.034 0.017,0.007 0.03,0.012 0.069,0.028 0.1,0.039 0.084,0.033 0.018,0.007 0.021,0.008 0.082,0.03 0.084,0.031 0.021,0.008 0.018,0.006 0.088,0.031 0.108,0.038 0.109,0.036 0.106,0.036 c 0.054,0.017 0.108,0.034 0.163,0.052 l 0.136,0.041 0.046,0.014 0.043,0.013 0.073,0.021 0.118,0.034 0.119,0.033 0.121,0.033 0.123,0.032 0.124,0.032 0.125,0.031 0.128,0.031 0.128,0.03 0.131,0.03 0.132,0.029 0.133,0.028 0.135,0.028 0.137,0.028 0.138,0.027 0.14,0.026 0.142,0.026 0.143,0.025 0.145,0.025 0.147,0.024 0.148,0.024 0.15,0.023 0.152,0.022 0.153,0.022 0.155,0.021 0.157,0.021 0.158,0.02 0.161,0.02 c 0.075,0.009 0.149,0.018 0.223,0.028 l 0.148,0.018 0.183,0.025 0.181,0.026 0.179,0.027 0.177,0.028 0.175,0.029 0.174,0.03 0.171,0.031 0.086,0.016 0.084,0.016 0.018,0.003 0.15,0.029 0.166,0.034 0.165,0.035 0.162,0.035 0.161,0.037 0.159,0.037 0.157,0.038 0.115,0.029 c 0.087,0.023 0.173,0.045 0.259,0.068 l 0.087,0.023 0.151,0.042 0.115,0.033 0.033,0.01 0.04,0.012 0.107,0.031 0.145,0.044 0.11,0.035 0.034,0.011 0.036,0.012 0.105,0.033 0.14,0.047 0.074,0.026 0.065,0.022 0.05,0.017 0.087,0.031 0.135,0.049 0.111,0.042 c 0.118,0.044 0.234,0.09 0.349,0.136 l 0.064,0.026 0.099,0.041 0.028,0.012 0.012,0.005 0.113,0.048 0.066,0.029 0.058,0.026 0.116,0.052 0.011,0.005 c 0.181,0.083 0.357,0.167 0.528,0.255 l 0.056,0.028 0.113,0.059 0.075,0.04 0.036,0.02 0.06,0.033 0.05,0.027 0.109,0.061 0.107,0.062 0.106,0.062 0.104,0.063 0.062,0.039 c 0.06,0.037 0.12,0.074 0.178,0.112 l 0.064,0.041 0.098,0.065 0.097,0.066 0.096,0.066 0.094,0.067 0.091,0.067 c 0.065,0.047 0.129,0.095 0.192,0.144 l 0.08,0.062 0.087,0.069 0.086,0.07 0.07,0.058 c 0.186,0.156 0.362,0.315 0.529,0.478 l 0.042,0.04 0.074,0.074 0.014,0.014 0.059,0.061 0.047,0.048 0.025,0.026 0.05,0.053 c 0.114,0.123 0.224,0.247 0.329,0.372 l 0.027,0.032 0.048,0.058 c 0.088,0.108 0.173,0.218 0.254,0.328 l 0.003,0.003 0.058,0.079 0.022,0.032 c 0.078,0.107 0.152,0.216 0.223,0.325 l 0.027,0.041 0.047,0.074 0.009,0.015 0.045,0.072 0.049,0.081 0.048,0.081 0.047,0.081 0.02,0.036 c 0.054,0.096 0.106,0.193 0.157,0.29 l 0.042,0.083 0.041,0.082 0.04,0.083 0.039,0.083 0.038,0.082 0.037,0.083 0.036,0.083 0.035,0.083 0.004,0.01 c 0.03,0.072 0.059,0.145 0.088,0.218 l 0.008,0.021 0.006,0.016 c 0.026,0.068 0.051,0.135 0.075,0.203 l 0.011,0.031 0.029,0.084 0.028,0.083 0.003,0.009 0.024,0.074 0.013,0.042 0.014,0.042 0.012,0.042 c 0.013,0.042 0.026,0.083 0.038,0.125 v 0 c 0.018,0.062 0.035,0.124 0.052,0.185 l 0.018,0.065 0.016,0.062 0.005,0.022 0.017,0.066 0.004,0.017 0.02,0.083 0.003,0.012 c 0.012,0.054 0.024,0.107 0.036,0.16 l 0.017,0.078 0.017,0.083 0.016,0.082 0.016,0.083 0.005,0.03 c 0.011,0.055 0.02,0.111 0.029,0.166 l 0.009,0.051 0.013,0.083 0.012,0.082 0.012,0.081 0.011,0.082 0.006,0.046 0.004,0.035 0.006,0.047 0.004,0.035 0.005,0.045 0.004,0.036 0.002,0.021 0.007,0.06 0.008,0.081 0.014,0.16 0.012,0.16 0.005,0.079 0.002,0.039 c 0.004,0.066 0.007,0.132 0.01,0.198 l 0.006,0.156 0.002,0.078 10e-4,0.069 v 0.008 0.037 l 0.002,0.117 v 0.153 l -0.001,0.075 -0.001,0.076 -0.002,0.074 -0.002,0.064 v 0.011 0.003 l -0.002,0.071 -0.003,0.074 -0.003,0.073 -0.004,0.065 v 0.008 l -0.003,0.051 -0.001,0.021 -0.004,0.072 -0.003,0.043 c -0.011,0.169 -0.025,0.334 -0.041,0.495 l -0.002,0.021 -0.014,0.134 -0.011,0.092 -0.005,0.04 -0.008,0.067 -0.008,0.064 -0.017,0.128 -0.018,0.125 -0.019,0.123 -0.019,0.121 -0.02,0.118 -0.014,0.077 c -0.019,0.103 -0.038,0.204 -0.057,0.301 l -0.013,0.066 -0.022,0.104 -0.002,0.01 c -0.025,0.115 -0.05,0.225 -0.074,0.329 l -0.011,0.046 -0.022,0.088 -0.021,0.085 -0.021,0.082 -0.021,0.078 -0.02,0.074 -0.02,0.071 -0.019,0.067 -0.006,0.019 c -0.037,0.129 -0.07,0.234 -0.096,0.314 l -0.008,0.026 -0.022,0.066 -0.007,0.019 -0.01,0.029 -0.014,0.04 H 22.728 Z"
         id="path822"
         style="fill:#666666" />
      <path
         inkscape:connector-curvature="0"
         d="M 69.428,162.704 V 151.135 H 0 V 136.006 H 45.03 V 124.699 H 0 c 0,0 0,-25.463 0,-34.942 0,-1.933 1.567,-3.5 3.5,-3.5 16.699,0 88.157,0 104.856,0 1.933,0 3.5,1.567 3.5,3.5 0,19.384 0,113.398 0,132.782 0,1.933 -1.567,3.5 -3.5,3.5 -16.699,0 -88.157,0 -104.856,0 -1.933,0 -3.5,-1.567 -3.5,-3.5 0,-9.16 0,-33.137 0,-33.137 H 45.03 V 177.57 H 0 v -14.866 z"
         id="path824"
         style="fill:#666666" />
      <path
         inkscape:connector-curvature="0"
         d="m 101.268,56.351 c 0,-1.933 -1.567,-3.5 -3.5,-3.5 -14.433,0 -69.247,0 -83.679,0 -1.933,0 -3.5,1.567 -3.5,3.5 0,4.523 0,12.353 0,16.876 0,1.933 1.567,3.5 3.5,3.5 14.432,0 69.246,0 83.679,0 1.933,0 3.5,-1.567 3.5,-3.5 0,-4.523 0,-12.353 0,-16.876 z"
         id="path826"
         style="fill:#666666" />
    </g>
  </g>
</svg>
