<?xml version="1.0" encoding="UTF-8" standalone="no"?>
<!-- Created with Inkscape (http://www.inkscape.org/) -->

<svg
   xmlns:dc="http://purl.org/dc/elements/1.1/"
   xmlns:cc="http://creativecommons.org/ns#"
   xmlns:rdf="http://www.w3.org/1999/02/22-rdf-syntax-ns#"
   xmlns:svg="http://www.w3.org/2000/svg"
   xmlns="http://www.w3.org/2000/svg"
   xmlns:sodipodi="http://sodipodi.sourceforge.net/DTD/sodipodi-0.dtd"
   xmlns:inkscape="http://www.inkscape.org/namespaces/inkscape"
   width="78"
   height="78"
   viewBox="0 0 20.6375 20.637501"
   version="1.1"
   id="svg5055"
   inkscape:version="0.92.1 r15371"
   sodipodi:docname="wet-diaper-78x78.svg">
  <defs
     id="defs5049">
    <clipPath
       clipPathUnits="userSpaceOnUse"
       id="clipPath1043">
      <rect
         style="fill:#ffffff;fill-opacity:1;stroke:#000000;stroke-width:2.98863006;stroke-opacity:0.8"
         id="rect1045"
         width="166.88715"
         height="143.04549"
         x="-1.4625821"
         y="-0.39029321" />
    </clipPath>
    <clipPath
       clipPathUnits="userSpaceOnUse"
       id="clipPath3564">
      <ellipse
         style="fill:none;fill-opacity:1;stroke:#000000;stroke-width:4.13080025;stroke-opacity:0.8"
         id="ellipse3566"
         cx="1.178206"
         cy="185.80487"
         rx="126.33518"
         ry="154.53302"
         transform="rotate(-44.264101)" />
    </clipPath>
  </defs>
  <sodipodi:namedview
     id="base"
     pagecolor="#ffffff"
     bordercolor="#666666"
     borderopacity="1.0"
     inkscape:pageopacity="0.0"
     inkscape:pageshadow="2"
     inkscape:zoom="5.3625915"
     inkscape:cx="38.140952"
     inkscape:cy="37.327358"
     inkscape:document-units="mm"
     inkscape:current-layer="layer1"
     showgrid="false"
     inkscape:window-width="932"
     inkscape:window-height="620"
     inkscape:window-x="493"
     inkscape:window-y="44"
     inkscape:window-maximized="0"
     units="px" />
  <metadata
     id="metadata5052">
    <rdf:RDF>
      <cc:Work
         rdf:about="">
        <dc:format>image/svg+xml</dc:format>
        <dc:type
           rdf:resource="http://purl.org/dc/dcmitype/StillImage" />
        <dc:title></dc:title>
      </cc:Work>
    </rdf:RDF>
  </metadata>
  <g
     inkscape:label="Layer 1"
     inkscape:groupmode="layer"
     id="layer1"
     transform="translate(0,-276.36248)">
    <circle
       style="fill:none;fill-opacity:1;stroke:none;stroke-width:0.09782834;stroke-opacity:0.8"
       id="path12-5-3-1"
       cx="10.31179"
       cy="286.68817"
       r="10.269836" />
    <circle
       style="fill:none;fill-opacity:1;stroke:none;stroke-width:0.09782834;stroke-opacity:0.8"
       id="path12-5-3"
       cx="10.31179"
       cy="286.6882"
       r="10.269836" />
    <g
       style="clip-rule:evenodd;fill:#666666;fill-rule:evenodd;stroke-linejoin:round;stroke-miterlimit:1.41420996"
       id="g1496"
       transform="matrix(0.05787965,0,0,0.05787965,2.3742888,281.78001)">
      <g
         id="g1339"
         style="fill:#666666">
        <path
           id="path1047"
           d="m 232.45,83.551 0.774,0.027 h -0.258 z"
           inkscape:connector-curvature="0"
           style="fill:#666666" />
        <path
           id="path1049"
           d="m 233.224,83.578 h -0.258 l -0.516,-0.027 z"
           inkscape:connector-curvature="0"
           style="fill:#666666" />
        <path
           id="path1051"
           d="m 229.743,83.37 0.681,0.073 -0.357,-0.019 z"
           inkscape:connector-curvature="0"
           style="fill:#666666" />
        <path
           id="path1053"
           d="m 230.424,83.443 -0.247,-0.013 0.002,-0.013 z m -0.4,-0.043 -0.001,0.017 -0.28,-0.047 z"
           inkscape:connector-curvature="0"
           style="fill:#666666" />
        <path
           id="path1055"
           d="m 44.209,83.424 -0.389,0.019 1.293,-0.14 z"
           inkscape:connector-curvature="0"
           style="fill:#666666" />
        <path
           id="path1057"
           d="m 44.209,83.424 -0.389,0.019 1.293,-0.14 z"
           inkscape:connector-curvature="0"
           style="fill:#666666" />
        <path
           id="path1059"
           d="m 46.426,83.127 -0.524,0.07 1.445,-0.262 z"
           inkscape:connector-curvature="0"
           style="fill:#666666" />
        <path
           id="path1061"
           d="m 46.426,83.127 -0.524,0.07 1.445,-0.262 z"
           inkscape:connector-curvature="0"
           style="fill:#666666" />
        <path
           id="path1063"
           d="m 48.617,82.67 -0.543,0.113 1.39,-0.358 z"
           inkscape:connector-curvature="0"
           style="fill:#666666" />
        <path
           id="path1065"
           d="m 48.617,82.67 -0.543,0.113 1.39,-0.358 z"
           inkscape:connector-curvature="0"
           style="fill:#666666" />
        <path
           id="path1067"
           d="m 225.079,82.501 1.015,0.261 -0.185,-0.031 z"
           inkscape:connector-curvature="0"
           style="fill:#666666" />
        <path
           id="path1069"
           d="m 226.094,82.762 -0.185,-0.031 -0.83,-0.23 z"
           inkscape:connector-curvature="0"
           style="fill:#666666" />
        <path
           id="path1071"
           d="m 223.124,81.897 1.014,0.343 -0.262,-0.072 z"
           inkscape:connector-curvature="0"
           style="fill:#666666" />
        <path
           id="path1073"
           d="m 224.138,82.24 -0.262,-0.072 -0.752,-0.271 z"
           inkscape:connector-curvature="0"
           style="fill:#666666" />
        <path
           id="path1075"
           d="m 50.766,82.049 -0.561,0.162 1.264,-0.428 z"
           inkscape:connector-curvature="0"
           style="fill:#666666" />
        <path
           id="path1077"
           d="m 50.766,82.049 -0.561,0.162 1.264,-0.428 z"
           inkscape:connector-curvature="0"
           style="fill:#666666" />
        <path
           id="path1079"
           d="m 221.643,81.332 0.494,0.21 -0.245,-0.088 z"
           inkscape:connector-curvature="0"
           style="fill:#666666" />
        <path
           id="path1081"
           d="m 222.137,81.542 -0.121,-0.043 0.003,-0.007 z m -0.401,-0.171 -0.002,0.005 -0.091,-0.044 z"
           inkscape:connector-curvature="0"
           style="fill:#666666" />
        <path
           id="path1083"
           d="m 52.859,81.257 -0.582,0.22 0.925,-0.395 z"
           inkscape:connector-curvature="0"
           style="fill:#666666" />
        <path
           id="path1085"
           d="m 52.859,81.257 -0.582,0.22 0.925,-0.395 z"
           inkscape:connector-curvature="0"
           style="fill:#666666" />
        <path
           id="path1087"
           d="m 217.686,79.25 0.914,0.583 -0.086,-0.042 z"
           inkscape:connector-curvature="0"
           style="fill:#666666" />
        <path
           id="path1089"
           d="m 218.6,79.833 -0.086,-0.042 -0.828,-0.541 z"
           inkscape:connector-curvature="0"
           style="fill:#666666" />
        <path
           id="path1091"
           d="m 55.883,79.717 -0.168,0.086 0.45,-0.287 z"
           inkscape:connector-curvature="0"
           style="fill:#666666" />
        <path
           id="path1093"
           d="m 55.836,79.741 -0.121,0.062 0.114,-0.073 z"
           inkscape:connector-curvature="0"
           style="fill:#666666" />
        <path
           id="path1095"
           d="m 216.299,78.257 0.736,0.568 -0.098,-0.064 z"
           inkscape:connector-curvature="0"
           style="fill:#666666" />
        <path
           id="path1097"
           d="m 217.035,78.825 -0.098,-0.064 -0.638,-0.504 z"
           inkscape:connector-curvature="0"
           style="fill:#666666" />
        <path
           id="path1099"
           d="M 58.642,77.743 58.563,77.8 58.652,77.731 59.697,76.75 Z"
           inkscape:connector-curvature="0"
           style="fill:#666666" />
        <path
           id="path1101"
           d="M 58.642,77.743 58.563,77.8 58.652,77.731 59.697,76.75 Z"
           inkscape:connector-curvature="0"
           style="fill:#666666" />
        <path
           id="path1103"
           d="m 215.269,77.401 0.282,0.264 -0.091,-0.072 z"
           inkscape:connector-curvature="0"
           style="fill:#666666" />
        <path
           id="path1105"
           d="m 215.551,77.665 -0.091,-0.071 0.007,-0.007 z"
           inkscape:connector-curvature="0"
           style="fill:#666666" />
        <path
           id="path1107"
           d="m 59.994,76.47 -0.025,0.023 0.373,-0.43 z"
           inkscape:connector-curvature="0"
           style="fill:#666666" />
        <path
           id="path1109"
           d="m 60.31,76.1 -0.316,0.37 -0.025,0.023 z"
           inkscape:connector-curvature="0"
           style="fill:#666666" />
        <path
           id="path1111"
           d="m 213.48,75.541 0.376,0.434 -0.238,-0.24 z"
           inkscape:connector-curvature="0"
           style="fill:#666666" />
        <path
           id="path1113"
           d="m 213.526,75.595 -0.005,0.004 -0.041,-0.058 z"
           inkscape:connector-curvature="0"
           style="fill:#666666" />
        <path
           id="path1115"
           d="m 61.201,75.057 -0.051,0.059 0.336,-0.489 z"
           inkscape:connector-curvature="0"
           style="fill:#666666" />
        <path
           id="path1117"
           d="m 61.42,74.726 -0.219,0.331 -0.051,0.059 0.269,-0.391 z"
           inkscape:connector-curvature="0"
           style="fill:#666666" />
        <path
           id="path1119"
           d="m 211.812,73.022 0.339,0.65 -0.048,-0.068 z"
           inkscape:connector-curvature="0"
           style="fill:#666666" />
        <path
           id="path1121"
           d="m 212.151,73.672 -0.048,-0.068 -0.233,-0.465 0.002,-10e-4 z"
           inkscape:connector-curvature="0"
           style="fill:#666666" />
        <path
           id="path1123"
           d="m 62.226,73.511 -0.083,0.126 0.303,-0.583 z"
           inkscape:connector-curvature="0"
           style="fill:#666666" />
        <path
           id="path1125"
           d="m 62.345,73.265 -0.119,0.246 -0.083,0.126 0.195,-0.375 z"
           inkscape:connector-curvature="0"
           style="fill:#666666" />
        <path
           id="path1127"
           d="m 211.15,71.517 0.248,0.677 -0.054,-0.107 z"
           inkscape:connector-curvature="0"
           style="fill:#666666" />
        <path
           id="path1129"
           d="m 211.398,72.194 -0.054,-0.107 -0.14,-0.411 0.004,-0.001 z"
           inkscape:connector-curvature="0"
           style="fill:#666666" />
        <path
           id="path1131"
           d="m 63.033,71.838 -0.104,0.215 0.408,-1.113 z"
           inkscape:connector-curvature="0"
           style="fill:#666666" />
        <path
           id="path1133"
           d="m 63.033,71.838 -0.104,0.215 0.408,-1.113 z"
           inkscape:connector-curvature="0"
           style="fill:#666666" />
        <path
           id="path1135"
           d="m 63.744,69.183 v 10e-4 c -0.073,0.504 -0.179,1.004 -0.318,1.494 l -0.018,0.054 z"
           inkscape:connector-curvature="0"
           style="fill:#666666" />
        <path
           id="path1137"
           d="m 63.542,70.236 -0.018,0.072 -0.023,0.093 -0.025,0.092 -0.024,0.093 -0.026,0.092 -0.018,0.054 0.108,-0.5 z m 0.202,-1.052 -0.014,0.095 -0.015,0.094 -0.015,0.094 -0.017,0.094 -0.017,0.094 -0.018,0.094 -0.019,0.094 -0.014,0.07 -0.028,-0.007 0.157,-0.723 z"
           inkscape:connector-curvature="0"
           style="fill:#666666" />
        <path
           id="path1139"
           d="m 210.758,70.224 0.087,0.4 -0.049,-0.143 z"
           inkscape:connector-curvature="0"
           style="fill:#666666" />
        <path
           id="path1141"
           d="m 210.43,67.782 0.034,0.468 -0.043,-0.29 z"
           inkscape:connector-curvature="0"
           style="fill:#666666" />
        <path
           id="path1143"
           d="m 63.855,67.132 -0.01,0.178 -0.033,-0.469 z"
           inkscape:connector-curvature="0"
           style="fill:#666666" />
        <path
           id="path1145"
           d="m 210.869,64.358 -0.338,1.55 0.319,-1.494 z"
           inkscape:connector-curvature="0"
           style="fill:#666666" />
        <path
           id="path1147"
           d="m 210.531,65.908 0.319,-1.494 0.019,-0.056 z"
           inkscape:connector-curvature="0"
           style="fill:#666666" />
        <path
           id="path1149"
           d="m 63.48,64.611 0.038,0.257 -0.087,-0.401 z"
           inkscape:connector-curvature="0"
           style="fill:#666666" />
        <path
           id="path1151"
           d="m 211.347,63.038 -0.404,1.1 0.3,-0.884 z"
           inkscape:connector-curvature="0"
           style="fill:#666666" />
        <path
           id="path1153"
           d="m 210.943,64.138 0.3,-0.884 0.104,-0.216 z"
           inkscape:connector-curvature="0"
           style="fill:#666666" />
        <path
           id="path1155"
           d="m 62.931,63.005 0.195,0.57 -0.248,-0.677 z"
           inkscape:connector-curvature="0"
           style="fill:#666666" />
        <path
           id="path1157"
           d="m 62.931,63.005 0.141,0.411 -0.004,0.001 -0.19,-0.519 z"
           inkscape:connector-curvature="0"
           style="fill:#666666" />
        <path
           id="path1159"
           d="m 62.173,61.488 0.291,0.582 -0.339,-0.65 z"
           inkscape:connector-curvature="0"
           style="fill:#666666" />
        <path
           id="path1161"
           d="m 62.173,61.488 0.232,0.465 -0.002,10e-4 -0.278,-0.534 z"
           inkscape:connector-curvature="0"
           style="fill:#666666" />
        <path
           id="path1163"
           d="m 212.132,61.457 -0.297,0.568 0.214,-0.444 z"
           inkscape:connector-curvature="0"
           style="fill:#666666" />
        <path
           id="path1165"
           d="m 211.945,61.815 -0.007,-0.003 0.111,-0.231 0.083,-0.124 z"
           inkscape:connector-curvature="0"
           style="fill:#666666" />
        <path
           id="path1167"
           d="m 213.121,59.98 -0.302,0.44 0.256,-0.385 z"
           inkscape:connector-curvature="0"
           style="fill:#666666" />
        <path
           id="path1169"
           d="m 212.889,60.319 -0.002,-0.001 0.188,-0.283 0.046,-0.055 z"
           inkscape:connector-curvature="0"
           style="fill:#666666" />
        <path
           id="path1171"
           d="m 60.658,59.357 0.137,0.194 -0.375,-0.434 z"
           inkscape:connector-curvature="0"
           style="fill:#666666" />
        <path
           id="path1173"
           d="M 60.795,59.551 60.75,59.498 60.755,59.493 Z"
           inkscape:connector-curvature="0"
           style="fill:#666666" />
        <path
           id="path1175"
           d="m 214.297,58.608 -0.219,0.252 0.203,-0.238 z"
           inkscape:connector-curvature="0"
           style="fill:#666666" />
        <path
           id="path1177"
           d="m 214.112,58.822 -0.001,-0.001 0.17,-0.199 0.016,-0.014 z"
           inkscape:connector-curvature="0"
           style="fill:#666666" />
        <path
           id="path1179"
           d="m 58.816,57.499 0.19,0.192 -0.281,-0.264 z"
           inkscape:connector-curvature="0"
           style="fill:#666666" />
        <path
           id="path1181"
           d="m 58.813,57.497 -0.006,0.007 -0.082,-0.077 z"
           inkscape:connector-curvature="0"
           style="fill:#666666" />
        <path
           id="path1183"
           d="m 57.339,56.331 0.638,0.504 -0.736,-0.568 z"
           inkscape:connector-curvature="0"
           style="fill:#666666" />
        <path
           id="path1185"
           d="m 57.339,56.331 0.638,0.504 -0.736,-0.568 z"
           inkscape:connector-curvature="0"
           style="fill:#666666" />
        <path
           id="path1187"
           d="m 55.761,55.301 0.828,0.541 -0.913,-0.583 z"
           inkscape:connector-curvature="0"
           style="fill:#666666" />
        <path
           id="path1189"
           d="m 55.761,55.301 0.828,0.541 -0.913,-0.583 z"
           inkscape:connector-curvature="0"
           style="fill:#666666" />
        <path
           id="path1191"
           d="m 218.523,55.308 -0.348,0.222 0.217,-0.155 z"
           inkscape:connector-curvature="0"
           style="fill:#666666" />
        <path
           id="path1193"
           d="m 218.513,55.314 v -10e-4 l 0.01,-0.005 z"
           inkscape:connector-curvature="0"
           style="fill:#666666" />
        <path
           id="path1195"
           d="m 221.87,53.664 -0.717,0.306 0.264,-0.135 z"
           inkscape:connector-curvature="0"
           style="fill:#666666" />
        <path
           id="path1197"
           d="m 221.584,53.786 -0.431,0.184 0.264,-0.135 0.162,-0.061 z m 0.035,-0.016 -0.004,-0.01 0.255,-0.096 z"
           inkscape:connector-curvature="0"
           style="fill:#666666" />
        <path
           id="path1199"
           d="m 52.384,53.638 0.248,0.122 -0.493,-0.21 z"
           inkscape:connector-curvature="0"
           style="fill:#666666" />
        <path
           id="path1201"
           d="M 52.632,53.76 52.54,53.721 52.542,53.716 Z M 52.26,53.593 52.257,53.6 52.139,53.55 Z"
           inkscape:connector-curvature="0"
           style="fill:#666666" />
        <path
           id="path1203"
           d="m 223.942,52.918 -0.962,0.325 0.53,-0.2 z"
           inkscape:connector-curvature="0"
           style="fill:#666666" />
        <path
           id="path1205"
           d="m 222.98,53.243 0.53,-0.2 0.432,-0.125 z"
           inkscape:connector-curvature="0"
           style="fill:#666666" />
        <path
           id="path1207"
           d="m 50.399,52.924 0.753,0.271 -1.014,-0.343 z"
           inkscape:connector-curvature="0"
           style="fill:#666666" />
        <path
           id="path1209"
           d="m 50.399,52.924 0.753,0.271 -1.014,-0.343 z"
           inkscape:connector-curvature="0"
           style="fill:#666666" />
        <path
           id="path1211"
           d="m 226.078,52.334 -1.052,0.271 0.633,-0.183 z"
           inkscape:connector-curvature="0"
           style="fill:#666666" />
        <path
           id="path1213"
           d="m 225.026,52.605 0.633,-0.183 0.419,-0.088 z"
           inkscape:connector-curvature="0"
           style="fill:#666666" />
        <path
           id="path1215"
           d="m 48.367,52.361 0.83,0.23 -1.015,-0.261 z"
           inkscape:connector-curvature="0"
           style="fill:#666666" />
        <path
           id="path1217"
           d="m 48.367,52.361 0.83,0.23 -1.015,-0.261 z"
           inkscape:connector-curvature="0"
           style="fill:#666666" />
        <path
           id="path1219"
           d="m 228.265,51.909 -1.112,0.201 0.697,-0.145 z"
           inkscape:connector-curvature="0"
           style="fill:#666666" />
        <path
           id="path1221"
           d="m 227.153,52.11 0.697,-0.145 0.415,-0.056 z"
           inkscape:connector-curvature="0"
           style="fill:#666666" />
        <path
           id="path1223"
           d="m 230.397,51.652 -1.051,0.112 0.721,-0.096 z"
           inkscape:connector-curvature="0"
           style="fill:#666666" />
        <path
           id="path1225"
           d="m 229.346,51.764 0.721,-0.096 0.33,-0.016 z"
           inkscape:connector-curvature="0"
           style="fill:#666666" />
        <path
           id="path1227"
           d="m 44.209,51.668 0.323,0.054 -0.68,-0.073 z"
           inkscape:connector-curvature="0"
           style="fill:#666666" />
        <path
           id="path1229"
           d="m 44.532,51.722 -0.28,-0.03 10e-4,-0.017 z m -0.433,-0.06 -0.002,0.013 -0.245,-0.026 z"
           inkscape:connector-curvature="0"
           style="fill:#666666" />
        <path
           id="path1231"
           d="m 41.31,51.513 0.516,0.028 -0.774,-0.028 z"
           inkscape:connector-curvature="0"
           style="fill:#666666" />
        <path
           id="path1233"
           d="m 41.31,51.513 0.516,0.028 -0.774,-0.028 z"
           inkscape:connector-curvature="0"
           style="fill:#666666" />
        <path
           id="path1235"
           d="m 41.015,51.512 c 12.61,0 22.847,7.185 22.847,16.034 0,8.849 -10.237,16.034 -22.847,16.034 0,0 -18.891,0 -31.031,0 C 4.47,83.58 0,79.11 0,73.596 c 0,-3.851 0,-8.249 0,-12.1 0,-5.514 4.47,-9.984 9.984,-9.984 12.14,0 31.031,0 31.031,0 z"
           inkscape:connector-curvature="0"
           style="fill:#666666" />
        <path
           id="path1237"
           style="fill:#666666"
           d="M 43.354,83.493 41.015,83.58 43.82,83.443 Z"
           inkscape:connector-curvature="0" />
        <path
           id="path1239"
           style="fill:#666666"
           d="m 45.625,83.247 -0.512,0.056 0.789,-0.106 z"
           inkscape:connector-curvature="0" />
        <path
           id="path1241"
           style="fill:#666666"
           d="m 47.817,82.85 -0.47,0.085 0.727,-0.152 z"
           inkscape:connector-curvature="0" />
        <path
           id="path1243"
           style="fill:#666666"
           d="m 49.917,82.309 -0.453,0.116 0.741,-0.214 z"
           inkscape:connector-curvature="0" />
        <path
           id="path1245"
           style="fill:#666666"
           d="m 51.915,81.632 -0.446,0.151 0.808,-0.306 z"
           inkscape:connector-curvature="0" />
        <path
           id="path1247"
           style="fill:#666666"
           d="m 55.715,79.803 c -0.793,0.47 -1.632,0.901 -2.513,1.279 z"
           inkscape:connector-curvature="0" />
        <path
           id="path1249"
           style="fill:#666666"
           d="M 57.178,78.869 56.165,79.516 58.563,77.8 Z"
           inkscape:connector-curvature="0" />
        <path
           id="path1251"
           style="fill:#666666"
           d="m 59.966,76.497 -0.269,0.253 0.272,-0.257 z"
           inkscape:connector-curvature="0" />
        <path
           id="path1253"
           style="fill:#666666"
           d="m 61.109,75.176 -0.767,0.887 0.808,-0.947 z"
           inkscape:connector-curvature="0" />
        <path
           id="path1255"
           style="fill:#666666"
           d="m 62.07,73.776 -0.584,0.851 0.657,-0.99 z"
           inkscape:connector-curvature="0" />
        <path
           id="path1257"
           style="fill:#666666"
           d="m 62.837,72.305 -0.391,0.749 0.483,-1.001 z"
           inkscape:connector-curvature="0" />
        <path
           id="path1259"
           style="fill:#666666"
           d="m 63.399,70.771 -0.062,0.169 0.071,-0.208 z"
           inkscape:connector-curvature="0" />
        <path
           id="path1261"
           style="fill:#666666"
           d="m 63.845,67.31 0.017,0.236 c 0,0.553 -0.04,1.099 -0.118,1.637 z"
           inkscape:connector-curvature="0" />
        <path
           id="path1263"
           style="fill:#666666"
           d="m 63.744,65.908 0.068,0.933 -0.294,-1.973 z"
           inkscape:connector-curvature="0" />
        <path
           id="path1265"
           style="fill:#666666"
           d="m 63.398,64.316 0.033,0.151 -0.305,-0.892 z"
           inkscape:connector-curvature="0" />
        <path
           id="path1267"
           style="fill:#666666"
           d="m 62.835,62.78 0.043,0.118 -0.414,-0.828 z"
           inkscape:connector-curvature="0" />
        <path
           id="path1269"
           style="fill:#666666"
           d="m 60.795,59.551 c 0.501,0.597 0.947,1.223 1.33,1.869 z"
           inkscape:connector-curvature="0" />
        <path
           id="path1271"
           style="fill:#666666"
           d="m 59.958,58.584 0.462,0.533 -1.414,-1.426 z"
           inkscape:connector-curvature="0" />
        <path
           id="path1273"
           style="fill:#666666"
           d="m 58.643,57.349 0.082,0.078 -0.748,-0.592 z"
           inkscape:connector-curvature="0" />
        <path
           id="path1275"
           style="fill:#666666"
           d="m 57.168,56.211 0.073,0.056 -0.652,-0.425 z"
           inkscape:connector-curvature="0" />
        <path
           id="path1277"
           style="fill:#666666"
           d="m 52.632,53.76 c 1.083,0.447 2.108,0.954 3.044,1.499 z"
           inkscape:connector-curvature="0" />
        <path
           id="path1279"
           style="fill:#666666"
           d="m 51.902,53.449 0.237,0.101 -0.987,-0.355 z"
           inkscape:connector-curvature="0" />
        <path
           id="path1281"
           style="fill:#666666"
           d="m 49.905,52.773 0.233,0.079 -0.941,-0.261 z"
           inkscape:connector-curvature="0" />
        <path
           id="path1283"
           style="fill:#666666"
           d="m 44.532,51.722 c 1.258,0.134 2.481,0.34 3.65,0.608 z"
           inkscape:connector-curvature="0" />
        <path
           id="path1285"
           style="fill:#666666"
           d="m 43.35,51.595 0.502,0.054 -2.026,-0.108 z"
           inkscape:connector-curvature="0" />
        <path
           id="path1287"
           d="m 233.261,51.512 c -12.61,0 -22.848,7.185 -22.848,16.034 0,8.849 10.238,16.034 22.848,16.034 0,0 18.891,0 31.031,0 5.514,0 9.984,-4.47 9.984,-9.984 0,-3.851 0,-8.249 0,-12.1 0,-5.514 -4.47,-9.984 -9.984,-9.984 -12.14,0 -31.031,0 -31.031,0 z"
           inkscape:connector-curvature="0"
           style="fill:#666666" />
        <path
           id="path1289"
           style="fill:#666666"
           d="m 230.424,83.443 2.026,0.108 -1.524,-0.054 z"
           inkscape:connector-curvature="0" />
        <path
           id="path1291"
           style="fill:#666666"
           d="m 226.094,82.762 3.649,0.608 c -1.257,-0.134 -2.481,-0.34 -3.649,-0.608 z"
           inkscape:connector-curvature="0" />
        <path
           id="path1293"
           style="fill:#666666"
           d="m 224.138,82.24 0.941,0.261 -0.708,-0.182 z"
           inkscape:connector-curvature="0" />
        <path
           id="path1295"
           style="fill:#666666"
           d="m 222.137,81.542 0.987,0.355 -0.75,-0.254 z"
           inkscape:connector-curvature="0" />
        <path
           id="path1297"
           style="fill:#666666"
           d="m 218.6,79.833 3.043,1.499 c -1.082,-0.447 -2.107,-0.954 -3.043,-1.499 z"
           inkscape:connector-curvature="0" />
        <path
           id="path1299"
           style="fill:#666666"
           d="m 217.035,78.825 0.651,0.425 -0.578,-0.369 z"
           inkscape:connector-curvature="0" />
        <path
           id="path1301"
           style="fill:#666666"
           d="m 215.551,77.665 0.748,0.592 -0.666,-0.514 z"
           inkscape:connector-curvature="0" />
        <path
           id="path1303"
           style="fill:#666666"
           d="m 213.856,75.975 1.413,1.426 -0.952,-0.893 z"
           inkscape:connector-curvature="0" />
        <path
           id="path1305"
           style="fill:#666666"
           d="m 212.151,73.672 1.329,1.869 c -0.5,-0.597 -0.946,-1.223 -1.329,-1.869 z"
           inkscape:connector-curvature="0" />
        <path
           id="path1307"
           style="fill:#666666"
           d="m 211.398,72.194 0.414,0.828 -0.371,-0.71 z"
           inkscape:connector-curvature="0" />
        <path
           id="path1309"
           style="fill:#666666"
           d="m 210.845,70.624 0.305,0.893 -0.272,-0.741 z"
           inkscape:connector-curvature="0" />
        <path
           id="path1311"
           style="fill:#666666"
           d="m 210.464,68.25 0.294,1.974 -0.227,-1.04 z"
           inkscape:connector-curvature="0" />
        <path
           id="path1313"
           style="fill:#666666"
           d="m 210.943,64.138 -0.074,0.22 0.009,-0.042 z"
           inkscape:connector-curvature="0" />
        <path
           id="path1315"
           style="fill:#666666"
           d="m 211.835,62.025 -0.488,1.013 0.094,-0.258 z"
           inkscape:connector-curvature="0" />
        <path
           id="path1317"
           style="fill:#666666"
           d="m 212.819,60.42 -0.687,1.037 0.078,-0.15 z"
           inkscape:connector-curvature="0" />
        <path
           id="path1319"
           style="fill:#666666"
           d="m 214.078,58.86 -0.957,1.12 0.052,-0.074 z"
           inkscape:connector-curvature="0" />
        <path
           id="path1321"
           style="fill:#666666"
           d="m 215.633,57.349 -1.336,1.259 c 1.097,-1.14 2.395,-2.176 3.878,-3.078 z"
           inkscape:connector-curvature="0" />
        <path
           id="path1323"
           style="fill:#666666"
           d="m 221.153,53.97 -2.63,1.338 c 0.839,-0.5 1.73,-0.958 2.63,-1.338 z"
           inkscape:connector-curvature="0" />
        <path
           id="path1325"
           style="fill:#666666"
           d="m 222.98,53.243 -1.11,0.421 0.504,-0.215 z"
           inkscape:connector-curvature="0" />
        <path
           id="path1327"
           style="fill:#666666"
           d="m 225.026,52.605 -1.084,0.313 0.429,-0.145 z"
           inkscape:connector-curvature="0" />
        <path
           id="path1329"
           style="fill:#666666"
           d="m 227.153,52.11 -1.075,0.224 0.392,-0.1 z"
           inkscape:connector-curvature="0" />
        <path
           id="path1331"
           style="fill:#666666"
           d="m 229.346,51.764 -1.081,0.145 0.393,-0.071 z"
           inkscape:connector-curvature="0" />
        <g
           id="g1337"
           style="fill:#666666">
          <path
             id="path1333"
             d="M 11.647,36.514 11.643,6.876 C 11.643,3.079 14.721,0 18.519,0 c 35.956,0 202.061,0 237.95,0 1.817,0 3.559,0.722 4.843,2.006 1.284,1.284 2.006,3.026 2.006,4.843 v 29.665 h -30.486 c -0.569,0.007 -1.137,0.02 -1.705,0.045 -1.263,0.057 -2.523,0.163 -3.776,0.32 -4.325,0.543 -8.581,1.692 -12.558,3.482 -3.942,1.775 -7.614,4.186 -10.696,7.226 -2.02,1.993 -3.78,4.254 -5.172,6.728 -0.881,1.567 -1.614,3.218 -2.176,4.926 -0.607,1.845 -1.014,3.757 -1.206,5.69 -0.204,2.051 -0.167,4.125 0.11,6.168 0.331,2.441 1.007,4.832 1.987,7.092 1.238,2.85 2.956,5.481 5.02,7.801 1.009,1.135 2.1,2.195 3.257,3.179 5.052,4.295 11.287,7.077 17.753,8.428 1.082,0.226 2.172,0.412 3.267,0.56 1.39,0.187 2.788,0.311 4.189,0.374 0.7,0.031 1.4,0.044 2.101,0.047 l 30.091,-0.002 v 13.02 c 0,3.088 -2.059,5.797 -5.034,6.623 -39.825,11.344 -70.006,29.387 -74.513,75.564 -0.323,3.513 -3.27,6.201 -6.799,6.201 -16.788,0.022 -62.195,0.022 -78.984,0.022 -3.539,-0.001 -6.495,-2.697 -6.82,-6.221 -4.486,-46.186 -34.675,-64.232 -74.505,-75.586 -2.957,-0.821 -5.004,-3.514 -5.004,-6.584 L 11.657,98.58 41.444,98.578 c 0.568,-0.008 1.137,-0.02 1.705,-0.045 1.262,-0.057 2.522,-0.163 3.776,-0.32 4.324,-0.543 8.58,-1.692 12.557,-3.482 3.942,-1.774 7.616,-4.187 10.698,-7.228 1.917,-1.891 3.599,-4.022 4.954,-6.349 1.016,-1.743 1.847,-3.594 2.461,-5.516 0.57,-1.779 0.953,-3.618 1.138,-5.477 0.204,-2.054 0.167,-4.13 -0.111,-6.175 C 78.29,61.547 77.615,59.159 76.636,56.901 75.398,54.05 73.679,51.418 71.614,49.097 70.605,47.964 69.515,46.904 68.359,45.921 63.412,41.716 57.328,38.96 51.008,37.579 50.066,37.373 49.117,37.198 48.164,37.052 46.642,36.819 45.11,36.662 43.573,36.58 42.864,36.542 42.154,36.523 41.444,36.514 Z M 145.392,52.34 h -12.79 c -2.242,0 -3.692,0.659 -3.824,3.428 0,9.888 -5.801,11.076 -8.307,11.076 h -2.901 c -3.033,0 -3.824,1.318 -3.824,3.823 v 10.681 c 0,2.505 0.791,3.823 3.824,3.824 h 11.208 v 35.337 H 117.57 c -3.033,0 -3.824,1.45 -3.824,3.824 v 10.812 c 0,2.373 0.791,3.824 3.824,3.824 h 40.875 c 3.033,0 3.824,-1.451 3.824,-3.824 v -10.812 c 0,-2.374 -0.791,-3.824 -3.824,-3.824 h -9.23 V 55.768 c -0.131,-2.769 -1.582,-3.428 -3.823,-3.428 z"
             inkscape:connector-curvature="0"
             style="fill:#666666" />
          <path
             id="path1335"
             d="m 256.554,0.001 0.085,0.001 0.085,0.003 0.085,0.003 0.084,0.005 0.085,0.006 0.084,0.007 0.084,0.008 0.084,0.008 0.084,0.01 0.083,0.011 0.083,0.012 0.084,0.013 0.082,0.014 0.083,0.015 0.082,0.016 0.083,0.017 0.082,0.018 0.081,0.019 0.081,0.02 0.082,0.02 0.08,0.022 0.081,0.023 0.08,0.024 0.08,0.025 0.079,0.026 0.079,0.026 0.079,0.028 0.079,0.029 0.078,0.029 0.078,0.031 0.077,0.031 0.077,0.033 0.077,0.033 0.076,0.034 0.075,0.036 0.076,0.036 0.075,0.037 0.074,0.038 0.074,0.039 0.074,0.04 0.073,0.04 0.072,0.042 0.072,0.043 0.072,0.043 0.071,0.044 0.071,0.046 0.07,0.046 0.069,0.047 0.069,0.048 0.069,0.048 0.068,0.05 0.067,0.05 0.067,0.052 0.066,0.052 0.066,0.053 0.065,0.054 0.064,0.055 0.064,0.055 0.063,0.057 0.062,0.057 0.062,0.058 0.061,0.059 0.061,0.06 0.06,0.06 0.059,0.062 0.058,0.062 0.057,0.062 0.057,0.063 0.055,0.064 0.055,0.064 0.054,0.065 0.053,0.066 0.052,0.066 0.051,0.067 0.051,0.067 0.05,0.068 0.048,0.068 0.048,0.069 0.047,0.07 0.046,0.07 0.045,0.071 0.045,0.071 0.043,0.071 0.043,0.073 0.041,0.072 0.041,0.073 0.04,0.074 0.039,0.074 0.038,0.074 0.037,0.075 0.036,0.075 0.035,0.076 0.035,0.076 0.033,0.077 0.032,0.077 0.032,0.077 0.031,0.078 0.029,0.078 0.029,0.078 0.027,0.079 0.027,0.079 0.026,0.08 0.025,0.08 0.024,0.08 0.022,0.08 0.022,0.081 0.021,0.081 0.02,0.082 0.019,0.081 0.018,0.082 0.017,0.082 0.016,0.083 0.015,0.082 0.014,0.083 0.013,0.083 0.012,0.084 0.011,0.083 0.009,0.084 0.009,0.084 0.008,0.084 0.007,0.084 0.006,0.085 0.004,0.084 0.004,0.085 0.003,0.085 0.001,0.085 10e-4,0.085 v 29.665 h -30.486 l -0.426,0.007 -0.214,0.004 -0.213,0.005 -0.213,0.006 -0.213,0.007 -0.213,0.007 -0.213,0.009 -0.237,0.012 -0.237,0.012 -0.236,0.013 -0.237,0.015 -0.236,0.016 -0.236,0.017 -0.236,0.018 -0.237,0.019 -0.236,0.021 -0.236,0.022 -0.235,0.023 -0.236,0.024 -0.236,0.025 -0.235,0.027 -0.235,0.027 -0.235,0.029 -0.203,0.026 -0.203,0.027 -0.202,0.028 -0.202,0.028 -0.203,0.03 -0.202,0.03 -0.202,0.031 -0.201,0.032 -0.202,0.033 -0.202,0.034 -0.201,0.035 -0.201,0.036 -0.201,0.036 -0.201,0.038 -0.201,0.038 -0.201,0.04 -0.2,0.04 -0.2,0.041 -0.2,0.042 -0.2,0.043 -0.2,0.044 -0.199,0.044 -0.199,0.046 -0.199,0.047 -0.199,0.047 -0.199,0.048 -0.198,0.05 -0.198,0.05 -0.198,0.051 -0.198,0.052 -0.197,0.053 -0.198,0.054 -0.196,0.054 -0.197,0.056 -0.197,0.056 -0.196,0.058 -0.195,0.058 -0.196,0.06 -0.195,0.06 -0.195,0.061 -0.195,0.062 -0.194,0.063 -0.195,0.064 -0.193,0.065 -0.194,0.066 -0.193,0.066 -0.193,0.068 -0.192,0.068 -0.193,0.07 -0.191,0.07 -0.192,0.072 -0.191,0.072 -0.191,0.073 -0.19,0.074 -0.19,0.075 -0.19,0.076 -0.189,0.077 -0.189,0.078 -0.189,0.078 -0.188,0.08 -0.188,0.081 -0.187,0.081 -0.187,0.083 -0.187,0.083 -0.185,0.084 -0.184,0.084 -0.184,0.086 -0.183,0.086 -0.183,0.088 -0.182,0.088 -0.182,0.089 -0.182,0.09 -0.181,0.092 -0.181,0.092 -0.18,0.093 -0.18,0.093 -0.179,0.095 -0.179,0.096 -0.178,0.097 -0.178,0.097 -0.177,0.099 -0.177,0.099 -0.176,0.101 -0.176,0.101 -0.175,0.102 -0.174,0.104 -0.174,0.104 -0.174,0.105 -0.173,0.106 -0.172,0.107 -0.172,0.107 -0.171,0.109 -0.17,0.11 -0.17,0.111 -0.17,0.111 -0.168,0.113 -0.168,0.113 -0.168,0.114 -0.167,0.116 -0.166,0.116 -0.165,0.117 -0.165,0.118 -0.164,0.119 -0.163,0.12 -0.163,0.121 -0.162,0.121 -0.162,0.123 -0.16,0.124 -0.16,0.124 -0.159,0.125 -0.159,0.127 -0.158,0.127 -0.157,0.128 -0.156,0.129 -0.155,0.131 -0.155,0.131 -0.154,0.131 -0.153,0.133 -0.152,0.134 -0.152,0.135 -0.151,0.135 -0.15,0.137 -0.149,0.137 -0.148,0.139 -0.147,0.139 -0.147,0.14 -0.146,0.141 -0.145,0.142 -0.188,0.188 -0.187,0.189 -0.186,0.191 -0.184,0.192 -0.182,0.194 -0.181,0.195 -0.179,0.197 -0.177,0.198 -0.176,0.2 -0.174,0.201 -0.172,0.203 -0.171,0.204 -0.169,0.206 -0.167,0.207 -0.165,0.209 -0.163,0.21 -0.162,0.211 -0.16,0.213 -0.157,0.214 -0.156,0.215 -0.154,0.217 -0.152,0.219 -0.15,0.219 -0.148,0.221 -0.147,0.223 -0.144,0.223 -0.142,0.225 -0.14,0.226 -0.138,0.228 -0.135,0.229 -0.134,0.23 -0.132,0.231 -0.082,0.147 -0.081,0.148 -0.081,0.148 -0.079,0.149 -0.079,0.149 -0.078,0.149 -0.076,0.15 -0.076,0.151 -0.075,0.151 -0.075,0.151 -0.073,0.152 -0.072,0.152 -0.072,0.153 -0.07,0.153 -0.07,0.153 -0.068,0.154 -0.068,0.154 -0.067,0.155 -0.066,0.155 -0.065,0.156 -0.063,0.156 -0.063,0.156 -0.062,0.157 -0.061,0.157 -0.061,0.157 -0.059,0.158 -0.058,0.158 -0.057,0.159 -0.056,0.159 -0.055,0.159 -0.054,0.16 -0.054,0.16 -0.056,0.173 -0.055,0.173 -0.054,0.174 -0.053,0.175 -0.052,0.174 -0.05,0.175 -0.049,0.176 -0.048,0.176 -0.047,0.176 -0.046,0.176 -0.044,0.176 -0.044,0.177 -0.042,0.178 -0.041,0.177 -0.039,0.178 -0.039,0.178 -0.037,0.178 -0.036,0.179 -0.035,0.179 -0.033,0.179 -0.032,0.179 -0.032,0.179 -0.029,0.18 -0.029,0.18 -0.027,0.18 -0.027,0.18 -0.024,0.181 -0.024,0.18 -0.023,0.181 -0.021,0.181 -0.02,0.181 -0.018,0.181 -0.019,0.193 -0.017,0.192 -0.015,0.193 -0.014,0.192 -0.013,0.193 -0.011,0.193 -0.01,0.193 -0.009,0.193 -0.007,0.193 -0.006,0.193 -0.004,0.193 -0.003,0.193 -0.001,0.194 -10e-4,0.193 0.002,0.193 0.003,0.193 0.004,0.193 0.005,0.193 0.007,0.193 0.009,0.194 0.009,0.192 0.012,0.193 0.012,0.193 0.014,0.193 0.016,0.192 0.017,0.193 0.018,0.192 0.019,0.192 0.021,0.192 0.023,0.192 0.024,0.192 0.025,0.192 0.032,0.228 0.034,0.229 0.036,0.228 0.038,0.228 0.04,0.227 0.042,0.227 0.044,0.227 0.046,0.226 0.048,0.226 0.05,0.225 0.052,0.225 0.054,0.225 0.055,0.224 0.058,0.223 0.06,0.223 0.061,0.223 0.063,0.222 0.066,0.221 0.067,0.221 0.069,0.22 0.071,0.22 0.073,0.219 0.074,0.219 0.077,0.217 0.078,0.218 0.08,0.216 0.082,0.216 0.084,0.215 0.086,0.215 0.087,0.213 0.089,0.213 0.091,0.213 0.059,0.133 0.059,0.133 0.059,0.133 0.061,0.132 0.061,0.133 0.062,0.131 0.062,0.132 0.064,0.131 0.063,0.131 0.065,0.13 0.065,0.131 0.066,0.129 0.067,0.13 0.067,0.129 0.136,0.257 0.139,0.256 0.142,0.254 0.144,0.253 0.147,0.251 0.149,0.25 0.152,0.248 0.154,0.247 0.157,0.245 0.159,0.244 0.162,0.242 0.164,0.241 0.166,0.239 0.168,0.237 0.171,0.236 0.173,0.234 0.176,0.232 0.178,0.231 0.179,0.229 0.182,0.227 0.184,0.226 0.187,0.224 0.188,0.222 0.191,0.22 0.192,0.218 0.19,0.212 0.192,0.21 0.194,0.209 0.196,0.206 0.198,0.205 0.199,0.203 0.201,0.201 0.203,0.2 0.205,0.198 0.206,0.196 0.208,0.194 0.21,0.193 0.211,0.19 0.213,0.189 0.215,0.187 0.216,0.186 0.238,0.2 0.239,0.198 0.241,0.196 0.243,0.193 0.244,0.192 0.246,0.189 0.248,0.187 0.249,0.185 0.251,0.182 0.252,0.18 0.254,0.179 0.255,0.176 0.257,0.173 0.258,0.172 0.26,0.169 0.261,0.168 0.262,0.165 0.264,0.162 0.265,0.161 0.267,0.158 0.267,0.157 0.27,0.154 0.27,0.152 0.271,0.15 0.273,0.147 0.274,0.146 0.275,0.143 0.276,0.141 0.278,0.139 0.278,0.137 0.28,0.134 0.28,0.133 0.282,0.13 0.283,0.128 0.283,0.126 0.285,0.124 0.285,0.122 0.287,0.119 0.287,0.117 0.288,0.116 0.29,0.113 0.289,0.111 0.291,0.109 0.292,0.106 0.292,0.105 0.293,0.102 0.294,0.101 0.295,0.098 0.295,0.096 0.296,0.094 0.296,0.092 0.297,0.089 0.298,0.088 0.299,0.085 0.298,0.084 0.3,0.081 0.3,0.079 0.3,0.077 0.301,0.075 0.301,0.073 0.302,0.07 0.302,0.069 0.303,0.066 0.303,0.065 0.203,0.042 0.203,0.041 0.203,0.04 0.204,0.039 0.203,0.038 0.204,0.037 0.204,0.037 0.204,0.035 0.205,0.035 0.204,0.033 0.205,0.033 0.205,0.032 0.205,0.031 0.205,0.03 0.205,0.029 0.205,0.028 0.261,0.034 0.261,0.033 0.261,0.031 0.261,0.03 0.261,0.029 0.262,0.027 0.262,0.025 0.262,0.024 0.262,0.023 0.262,0.021 0.262,0.02 0.262,0.018 0.263,0.017 0.262,0.015 0.263,0.014 0.262,0.013 0.263,0.01 0.262,0.01 0.263,0.007 0.262,0.007 0.263,0.005 0.263,0.003 0.262,0.003 0.263,0.002 30.091,-0.002 v 13.02 l -10e-4,0.072 -0.001,0.072 -0.004,0.144 -0.008,0.143 -0.01,0.143 -0.013,0.142 -0.017,0.141 -0.019,0.14 -0.021,0.14 -0.025,0.139 -0.028,0.138 -0.03,0.137 -0.033,0.136 -0.035,0.135 -0.039,0.134 -0.041,0.133 -0.043,0.132 -0.047,0.131 -0.048,0.13 -0.052,0.128 -0.054,0.128 -0.056,0.126 -0.059,0.125 -0.061,0.123 -0.064,0.122 -0.066,0.121 -0.068,0.12 -0.071,0.118 -0.073,0.116 -0.075,0.115 -0.078,0.113 -0.08,0.112 -0.082,0.11 -0.084,0.109 -0.086,0.107 -0.089,0.105 -0.09,0.103 -0.093,0.102 -0.095,0.1 -0.096,0.097 -0.099,0.096 -0.101,0.094 -0.102,0.092 -0.105,0.091 -0.106,0.088 -0.109,0.086 -0.11,0.083 -0.112,0.082 -0.114,0.08 -0.115,0.077 -0.117,0.075 -0.119,0.073 -0.121,0.071 -0.122,0.068 -0.124,0.066 -0.126,0.063 -0.127,0.061 -0.128,0.058 -0.131,0.056 -0.131,0.054 -0.133,0.05 -0.135,0.049 -0.136,0.045 -0.137,0.043 -0.07,0.02 -0.069,0.02 -0.466,0.133 -0.466,0.134 -0.464,0.135 -0.464,0.135 -0.463,0.136 -0.461,0.136 -0.461,0.137 -0.46,0.138 -0.459,0.138 -0.458,0.139 -0.457,0.14 -0.456,0.141 -0.456,0.141 -0.454,0.142 -0.453,0.142 -0.453,0.144 -0.451,0.144 -0.45,0.145 -0.45,0.145 -0.448,0.147 -0.447,0.147 -0.447,0.148 -0.445,0.148 -0.445,0.15 -0.443,0.15 -0.442,0.151 -0.442,0.152 -0.44,0.153 -0.439,0.153 -0.438,0.155 -0.437,0.155 -0.436,0.156 -0.435,0.157 -0.434,0.158 -0.433,0.158 -0.432,0.16 -0.43,0.16 -0.43,0.162 -0.428,0.162 -0.428,0.163 -0.426,0.164 -0.425,0.165 -0.424,0.166 -0.423,0.167 -0.422,0.168 -0.42,0.168 -0.42,0.17 -0.418,0.171 -0.417,0.172 -0.416,0.172 -0.415,0.174 -0.414,0.175 -0.412,0.175 -0.411,0.177 -0.41,0.178 -0.409,0.179 -0.408,0.179 -0.406,0.181 -0.406,0.182 -0.404,0.183 -0.402,0.184 -0.402,0.185 -0.4,0.187 -0.399,0.187 -0.398,0.188 -0.397,0.19 -0.395,0.191 -0.394,0.191 -0.393,0.193 -0.391,0.194 -0.391,0.196 -0.388,0.196 -0.388,0.198 -0.386,0.198 -0.385,0.2 -0.384,0.201 -0.382,0.203 -0.381,0.203 -0.38,0.205 -0.379,0.206 -0.377,0.207 -0.375,0.208 -0.375,0.21 -0.373,0.211 -0.371,0.212 -0.371,0.213 -0.368,0.215 -0.368,0.216 -0.366,0.217 -0.365,0.219 -0.363,0.22 -0.362,0.221 -0.36,0.222 -0.36,0.224 -0.357,0.225 -0.356,0.226 -0.355,0.228 -0.354,0.229 -0.352,0.231 -0.35,0.232 -0.349,0.233 -0.348,0.235 -0.346,0.236 -0.344,0.237 -0.343,0.239 -0.342,0.241 -0.34,0.241 -0.339,0.244 -0.337,0.244 -0.336,0.246 -0.334,0.248 -0.332,0.249 -0.331,0.25 -0.33,0.252 -0.328,0.253 -0.327,0.255 -0.324,0.257 -0.324,0.258 -0.322,0.259 -0.32,0.261 -0.319,0.263 -0.317,0.264 -0.315,0.265 -0.314,0.267 -0.312,0.269 -0.311,0.27 -0.309,0.272 -0.308,0.274 -0.306,0.275 -0.304,0.276 -0.303,0.279 -0.301,0.279 -0.299,0.282 -0.298,0.283 -0.296,0.285 -0.294,0.286 -0.293,0.288 -0.291,0.29 -0.29,0.291 -0.287,0.293 -0.286,0.295 -0.285,0.297 -0.283,0.298 -0.28,0.3 -0.28,0.301 -0.277,0.304 -0.276,0.305 -0.274,0.307 -0.273,0.308 -0.27,0.31 -0.269,0.312 -0.267,0.314 -0.266,0.316 -0.263,0.317 -0.262,0.319 -0.26,0.321 -0.259,0.323 -0.256,0.325 -0.255,0.326 -0.253,0.329 -0.251,0.33 -0.249,0.332 -0.248,0.333 -0.245,0.336 -0.244,0.338 -0.242,0.339 -0.241,0.341 -0.238,0.344 -0.237,0.345 -0.234,0.347 -0.233,0.349 -0.231,0.35 -0.229,0.353 -0.227,0.355 -0.226,0.357 -0.223,0.358 -0.222,0.361 -0.219,0.362 -0.218,0.365 -0.216,0.366 -0.214,0.369 -0.212,0.37 -0.21,0.373 -0.208,0.375 -0.206,0.376 -0.205,0.379 -0.202,0.38 -0.2,0.383 -0.199,0.385 -0.196,0.387 -0.195,0.388 -0.192,0.391 -0.191,0.393 -0.188,0.396 -0.187,0.397 -0.184,0.399 -0.183,0.402 -0.18,0.403 -0.179,0.406 -0.176,0.408 -0.175,0.41 -0.172,0.412 -0.171,0.414 -0.168,0.417 -0.166,0.418 -0.164,0.421 -0.162,0.423 -0.161,0.425 -0.157,0.428 -0.156,0.429 -0.154,0.432 -0.152,0.434 -0.15,0.437 -0.147,0.438 -0.146,0.441 -0.143,0.443 -0.141,0.446 -0.139,0.447 -0.137,0.45 -0.135,0.452 -0.132,0.455 -0.131,0.457 -0.128,0.459 -0.126,0.461 -0.124,0.464 -0.122,0.466 -0.12,0.469 -0.117,0.471 -0.116,0.473 -0.113,0.475 -0.111,0.478 -0.108,0.481 -0.107,0.482 -0.104,0.486 -0.102,0.487 -0.1,0.49 -0.098,0.492 -0.095,0.495 -0.093,0.497 -0.091,0.5 -0.088,0.502 -0.087,0.505 -0.084,0.507 -0.081,0.509 -0.08,0.512 -0.077,0.515 -0.075,0.517 -0.072,0.52 -0.071,0.522 -0.068,0.524 -0.065,0.527 -0.064,0.53 -0.061,0.532 -0.058,0.535 -0.057,0.537 -0.054,0.54 -0.008,0.082 -0.009,0.082 -0.01,0.081 -0.011,0.082 -0.011,0.081 -0.013,0.08 -0.014,0.081 -0.015,0.079 -0.015,0.08 -0.017,0.079 -0.017,0.079 -0.018,0.079 -0.019,0.078 -0.02,0.078 -0.021,0.077 -0.022,0.077 -0.023,0.077 -0.023,0.076 -0.024,0.076 -0.026,0.075 -0.026,0.075 -0.027,0.075 -0.027,0.074 -0.029,0.074 -0.029,0.073 -0.03,0.073 -0.031,0.073 -0.032,0.072 -0.033,0.071 -0.033,0.071 -0.034,0.071 -0.035,0.07 -0.036,0.07 -0.037,0.069 -0.037,0.069 -0.038,0.068 -0.039,0.068 -0.039,0.067 -0.04,0.067 -0.041,0.066 -0.042,0.066 -0.042,0.065 -0.044,0.065 -0.043,0.064 -0.045,0.063 -0.045,0.064 -0.046,0.062 -0.047,0.062 -0.047,0.061 -0.048,0.061 -0.049,0.061 -0.049,0.059 -0.05,0.059 -0.051,0.059 -0.051,0.058 -0.052,0.057 -0.052,0.057 -0.053,0.056 -0.054,0.056 -0.055,0.055 -0.055,0.054 -0.055,0.054 -0.056,0.053 -0.057,0.052 -0.058,0.052 -0.058,0.051 -0.058,0.051 -0.059,0.049 -0.06,0.049 -0.06,0.049 -0.061,0.048 -0.061,0.047 -0.062,0.046 -0.063,0.046 -0.063,0.045 -0.063,0.044 -0.064,0.044 -0.065,0.043 -0.065,0.042 -0.065,0.042 -0.066,0.04 -0.067,0.04 -0.067,0.04 -0.067,0.038 -0.068,0.038 -0.068,0.037 -0.069,0.036 -0.069,0.036 -0.07,0.034 -0.07,0.034 -0.071,0.034 -0.071,0.032 -0.071,0.032 -0.072,0.03 -0.073,0.03 -0.072,0.03 -0.073,0.028 -0.074,0.027 -0.074,0.027 -0.074,0.026 -0.075,0.025 -0.075,0.024 -0.075,0.024 -0.076,0.022 -0.076,0.022 -0.076,0.021 -0.077,0.02 -0.077,0.019 -0.077,0.018 -0.078,0.017 -0.078,0.017 -0.079,0.015 -0.078,0.015 -0.079,0.013 -0.08,0.013 -0.079,0.012 -0.08,0.011 -0.08,0.01 -0.081,0.009 -0.08,0.008 -0.081,0.008 -0.081,0.006 -0.082,0.005 -0.082,0.005 -0.081,0.003 -0.083,0.002 -0.082,0.002 h -0.083 l -3.469,0.004 -4.056,0.003 -9.538,0.006 -10.879,0.003 -11.55,0.003 -11.55,0.001 -10.879,0.001 -17.063,0.001 -0.083,-0.001 -0.082,-0.001 -0.083,-0.003 -0.082,-0.003 -0.082,-0.005 -0.082,-0.005 -0.081,-0.006 -0.081,-0.008 -0.081,-0.008 -0.081,-0.009 -0.08,-0.01 -0.08,-0.011 -0.08,-0.012 -0.08,-0.013 -0.079,-0.014 -0.079,-0.014 -0.078,-0.016 -0.079,-0.016 -0.078,-0.018 -0.077,-0.018 -0.078,-0.019 -0.077,-0.02 -0.076,-0.021 -0.077,-0.022 -0.076,-0.022 -0.075,-0.024 -0.075,-0.024 -0.075,-0.025 -0.075,-0.026 -0.074,-0.027 -0.074,-0.027 -0.073,-0.029 -0.073,-0.029 -0.072,-0.03 -0.072,-0.031 -0.072,-0.032 -0.071,-0.032 -0.071,-0.034 -0.071,-0.034 -0.069,-0.034 -0.07,-0.036 -0.069,-0.036 -0.069,-0.038 -0.068,-0.037 -0.067,-0.039 -0.068,-0.04 -0.066,-0.04 -0.066,-0.041 -0.066,-0.041 -0.065,-0.042 -0.065,-0.044 -0.064,-0.043 -0.064,-0.045 -0.063,-0.045 -0.063,-0.046 -0.062,-0.046 -0.061,-0.048 -0.061,-0.048 -0.061,-0.048 -0.059,-0.05 -0.06,-0.049 -0.059,-0.051 -0.058,-0.051 -0.057,-0.052 -0.057,-0.053 -0.057,-0.053 -0.055,-0.054 -0.056,-0.054 -0.054,-0.055 -0.054,-0.056 -0.053,-0.057 -0.053,-0.056 -0.052,-0.058 -0.052,-0.058 -0.05,-0.059 -0.051,-0.059 -0.049,-0.06 -0.049,-0.061 -0.048,-0.061 -0.047,-0.061 -0.047,-0.062 -0.046,-0.063 -0.046,-0.063 -0.044,-0.064 -0.044,-0.065 -0.044,-0.064 -0.042,-0.066 -0.042,-0.066 -0.041,-0.066 -0.04,-0.067 -0.04,-0.068 -0.039,-0.068 -0.038,-0.068 -0.037,-0.069 -0.037,-0.07 -0.036,-0.069 -0.035,-0.071 -0.034,-0.071 -0.034,-0.071 -0.032,-0.072 -0.032,-0.072 -0.031,-0.073 -0.031,-0.073 -0.029,-0.073 -0.029,-0.074 -0.028,-0.075 -0.026,-0.075 -0.027,-0.075 -0.025,-0.076 -0.024,-0.076 -0.024,-0.076 -0.023,-0.077 -0.021,-0.077 -0.021,-0.078 -0.02,-0.078 -0.02,-0.078 -0.018,-0.079 -0.017,-0.079 -0.017,-0.08 -0.015,-0.08 -0.015,-0.08 -0.014,-0.08 -0.013,-0.081 -0.012,-0.081 -0.011,-0.082 -0.01,-0.082 -0.009,-0.082 -0.008,-0.082 -0.053,-0.54 -0.056,-0.538 -0.059,-0.534 -0.061,-0.533 -0.063,-0.529 -0.065,-0.528 -0.068,-0.524 -0.07,-0.522 -0.072,-0.52 -0.075,-0.517 -0.077,-0.515 -0.079,-0.512 -0.082,-0.509 -0.084,-0.508 -0.086,-0.504 -0.088,-0.503 -0.091,-0.499 -0.093,-0.498 -0.095,-0.495 -0.097,-0.492 -0.1,-0.49 -0.102,-0.488 -0.104,-0.485 -0.106,-0.483 -0.108,-0.48 -0.111,-0.478 -0.113,-0.476 -0.115,-0.473 -0.117,-0.471 -0.12,-0.469 -0.122,-0.466 -0.124,-0.464 -0.126,-0.461 -0.128,-0.459 -0.13,-0.457 -0.133,-0.455 -0.134,-0.452 -0.137,-0.45 -0.139,-0.448 -0.141,-0.446 -0.143,-0.443 -0.145,-0.441 -0.148,-0.438 -0.149,-0.437 -0.152,-0.434 -0.154,-0.432 -0.155,-0.43 -0.158,-0.427 -0.16,-0.425 -0.162,-0.424 -0.164,-0.42 -0.166,-0.419 -0.169,-0.417 -0.17,-0.414 -0.172,-0.412 -0.174,-0.41 -0.177,-0.408 -0.178,-0.406 -0.181,-0.404 -0.182,-0.401 -0.184,-0.4 -0.187,-0.397 -0.188,-0.395 -0.191,-0.393 -0.192,-0.391 -0.195,-0.389 -0.196,-0.387 -0.198,-0.385 -0.201,-0.383 -0.202,-0.38 -0.204,-0.379 -0.206,-0.377 -0.208,-0.374 -0.21,-0.373 -0.212,-0.371 -0.214,-0.368 -0.216,-0.367 -0.217,-0.364 -0.22,-0.363 -0.222,-0.361 -0.223,-0.358 -0.225,-0.357 -0.227,-0.355 -0.229,-0.353 -0.231,-0.351 -0.233,-0.349 -0.235,-0.347 -0.236,-0.345 -0.239,-0.343 -0.24,-0.342 -0.242,-0.339 -0.244,-0.338 -0.245,-0.336 -0.248,-0.333 -0.249,-0.332 -0.251,-0.331 -0.253,-0.328 -0.255,-0.326 -0.256,-0.325 -0.259,-0.323 -0.26,-0.321 -0.261,-0.319 -0.264,-0.318 -0.265,-0.315 -0.267,-0.314 -0.269,-0.313 -0.271,-0.31 -0.272,-0.308 -0.274,-0.307 -0.276,-0.305 -0.278,-0.304 -0.279,-0.302 -0.281,-0.299 -0.283,-0.299 -0.284,-0.296 -0.286,-0.295 -0.288,-0.293 -0.289,-0.292 -0.291,-0.29 -0.293,-0.288 -0.294,-0.286 -0.296,-0.285 -0.298,-0.283 -0.3,-0.282 -0.301,-0.28 -0.302,-0.278 -0.305,-0.277 -0.305,-0.275 -0.308,-0.273 -0.309,-0.272 -0.311,-0.271 -0.312,-0.268 -0.314,-0.268 -0.316,-0.265 -0.317,-0.264 -0.319,-0.263 -0.32,-0.261 -0.322,-0.26 -0.323,-0.257 -0.325,-0.257 -0.326,-0.255 -0.328,-0.253 -0.33,-0.252 -0.331,-0.251 -0.333,-0.249 -0.334,-0.248 -0.336,-0.246 -0.337,-0.244 -0.338,-0.244 -0.341,-0.241 -0.341,-0.241 -0.343,-0.239 -0.345,-0.237 -0.346,-0.236 -0.348,-0.235 -0.349,-0.234 -0.35,-0.232 -0.352,-0.23 -0.354,-0.229 -0.355,-0.228 -0.356,-0.227 -0.357,-0.225 -0.36,-0.224 -0.36,-0.222 -0.362,-0.222 -0.363,-0.22 -0.365,-0.218 -0.366,-0.218 -0.368,-0.216 -0.369,-0.214 -0.37,-0.214 -0.372,-0.212 -0.373,-0.211 -0.374,-0.21 -0.376,-0.208 -0.377,-0.207 -0.378,-0.206 -0.38,-0.205 -0.381,-0.204 -0.383,-0.202 -0.383,-0.201 -0.386,-0.2 -0.386,-0.199 -0.388,-0.198 -0.389,-0.196 -0.39,-0.195 -0.391,-0.195 -0.393,-0.193 -0.394,-0.192 -0.396,-0.19 -0.396,-0.19 -0.398,-0.188 -0.399,-0.188 -0.401,-0.186 -0.401,-0.185 -0.403,-0.185 -0.404,-0.183 -0.405,-0.182 -0.407,-0.181 -0.408,-0.18 -0.409,-0.179 -0.41,-0.177 -0.411,-0.177 -0.412,-0.176 -0.414,-0.175 -0.415,-0.174 -0.416,-0.172 -0.417,-0.172 -0.419,-0.171 -0.419,-0.17 -0.421,-0.169 -0.422,-0.168 -0.422,-0.167 -0.424,-0.166 -0.426,-0.165 -0.426,-0.164 -0.427,-0.163 -0.429,-0.162 -0.43,-0.162 -0.43,-0.16 -0.432,-0.16 -0.433,-0.159 -0.434,-0.158 -0.435,-0.157 -0.436,-0.156 -0.437,-0.155 -0.438,-0.155 -0.44,-0.153 -0.44,-0.153 -0.441,-0.152 -0.443,-0.151 -0.443,-0.151 -0.445,-0.149 -0.445,-0.149 -0.446,-0.148 -0.448,-0.147 -0.448,-0.147 -0.45,-0.145 -0.45,-0.145 -0.452,-0.145 -0.452,-0.143 -0.453,-0.143 -0.455,-0.142 -0.455,-0.141 -0.456,-0.141 -0.457,-0.14 -0.458,-0.139 -0.459,-0.138 -0.46,-0.138 -0.461,-0.137 -0.462,-0.137 -0.463,-0.136 -0.464,-0.135 -0.464,-0.135 -0.465,-0.134 -0.467,-0.133 -0.138,-0.04 -0.136,-0.043 -0.136,-0.045 -0.133,-0.048 -0.133,-0.05 -0.131,-0.053 -0.129,-0.056 -0.128,-0.058 -0.126,-0.061 -0.125,-0.063 -0.123,-0.065 -0.122,-0.068 -0.12,-0.07 -0.118,-0.072 -0.117,-0.075 -0.115,-0.077 -0.113,-0.079 -0.111,-0.081 -0.109,-0.083 -0.108,-0.086 -0.106,-0.087 -0.104,-0.09 -0.102,-0.091 -0.1,-0.094 -0.098,-0.095 -0.096,-0.098 -0.095,-0.099 -0.092,-0.101 -0.09,-0.102 -0.088,-0.105 -0.086,-0.106 -0.083,-0.108 -0.082,-0.109 -0.079,-0.112 -0.077,-0.112 -0.075,-0.115 -0.073,-0.115 -0.07,-0.118 -0.068,-0.118 -0.066,-0.12 -0.063,-0.122 -0.061,-0.123 -0.058,-0.124 -0.056,-0.125 -0.054,-0.127 -0.051,-0.128 -0.048,-0.129 -0.046,-0.13 -0.044,-0.131 -0.04,-0.132 -0.039,-0.134 -0.035,-0.134 -0.033,-0.135 -0.03,-0.136 -0.027,-0.137 -0.025,-0.138 -0.021,-0.139 -0.019,-0.14 -0.016,-0.14 -0.014,-0.141 -0.01,-0.142 -0.007,-0.142 -0.005,-0.143 -10e-4,-0.144 -0.002,-13.037 29.787,-0.002 0.426,-0.007 0.213,-0.004 0.214,-0.005 0.213,-0.006 0.213,-0.007 0.213,-0.008 0.213,-0.008 0.237,-0.012 0.236,-0.012 0.237,-0.013 0.236,-0.015 0.237,-0.016 0.236,-0.017 0.236,-0.018 0.236,-0.02 0.236,-0.02 0.236,-0.022 0.236,-0.023 0.235,-0.024 0.236,-0.025 0.235,-0.027 0.236,-0.027 0.235,-0.029 0.202,-0.026 0.203,-0.027 0.202,-0.028 0.203,-0.028 0.202,-0.03 0.202,-0.03 0.202,-0.031 0.202,-0.032 0.201,-0.033 0.202,-0.034 0.201,-0.035 0.201,-0.036 0.202,-0.036 0.2,-0.038 0.201,-0.038 0.201,-0.04 0.2,-0.04 0.2,-0.041 0.2,-0.042 0.2,-0.043 0.2,-0.044 0.199,-0.044 0.199,-0.046 0.2,-0.046 0.198,-0.048 0.199,-0.048 0.198,-0.05 0.198,-0.05 0.198,-0.051 0.198,-0.052 0.197,-0.053 0.197,-0.053 0.197,-0.055 0.197,-0.056 0.196,-0.056 0.196,-0.058 0.196,-0.058 0.196,-0.06 0.195,-0.06 0.195,-0.061 0.195,-0.062 0.194,-0.063 0.194,-0.064 0.194,-0.065 0.194,-0.065 0.193,-0.067 0.193,-0.068 0.192,-0.068 0.192,-0.07 0.192,-0.07 0.191,-0.071 0.192,-0.072 0.19,-0.074 0.191,-0.074 0.19,-0.075 0.19,-0.076 0.189,-0.077 0.189,-0.077 0.189,-0.079 0.188,-0.08 0.188,-0.08 0.187,-0.082 0.187,-0.082 0.187,-0.084 0.184,-0.083 0.184,-0.085 0.184,-0.086 0.184,-0.086 0.183,-0.087 0.182,-0.089 0.182,-0.089 0.182,-0.09 0.181,-0.091 0.181,-0.092 0.18,-0.093 0.18,-0.094 0.179,-0.095 0.179,-0.096 0.178,-0.096 0.178,-0.098 0.177,-0.099 0.177,-0.099 0.176,-0.101 0.176,-0.101 0.175,-0.102 0.175,-0.103 0.174,-0.105 0.174,-0.105 0.173,-0.106 0.172,-0.107 0.172,-0.108 0.171,-0.108 0.17,-0.11 0.17,-0.111 0.17,-0.111 0.168,-0.113 0.169,-0.113 0.167,-0.115 0.167,-0.115 0.166,-0.116 0.166,-0.117 0.164,-0.118 0.165,-0.119 0.163,-0.12 0.163,-0.121 0.162,-0.122 0.161,-0.123 0.161,-0.123 0.16,-0.125 0.159,-0.125 0.159,-0.127 0.158,-0.127 0.157,-0.128 0.156,-0.129 0.155,-0.131 0.155,-0.131 0.154,-0.132 0.153,-0.132 0.153,-0.134 0.151,-0.135 0.151,-0.136 0.15,-0.136 0.149,-0.138 0.148,-0.138 0.148,-0.139 0.146,-0.141 0.146,-0.141 0.145,-0.142 0.179,-0.178 0.178,-0.179 0.176,-0.181 0.175,-0.182 0.173,-0.184 0.172,-0.185 0.17,-0.186 0.169,-0.187 0.167,-0.189 0.166,-0.191 0.165,-0.191 0.162,-0.193 0.162,-0.194 0.159,-0.196 0.158,-0.197 0.157,-0.198 0.154,-0.199 0.153,-0.201 0.152,-0.202 0.149,-0.203 0.148,-0.204 0.147,-0.206 0.144,-0.207 0.143,-0.208 0.141,-0.209 0.139,-0.211 0.137,-0.212 0.136,-0.213 0.134,-0.214 0.131,-0.215 0.13,-0.217 0.128,-0.217 0.095,-0.164 0.094,-0.164 0.092,-0.165 0.092,-0.166 0.09,-0.166 0.089,-0.167 0.088,-0.167 0.087,-0.168 0.086,-0.169 0.084,-0.169 0.084,-0.169 0.082,-0.171 0.081,-0.17 0.081,-0.172 0.078,-0.172 0.078,-0.172 0.077,-0.173 0.075,-0.173 0.074,-0.174 0.073,-0.175 0.072,-0.175 0.071,-0.175 0.069,-0.176 0.068,-0.176 0.067,-0.177 0.066,-0.177 0.065,-0.178 0.063,-0.178 0.062,-0.179 0.061,-0.179 0.059,-0.18 0.058,-0.18 0.053,-0.167 0.052,-0.167 0.051,-0.168 0.049,-0.168 0.049,-0.168 0.047,-0.169 0.046,-0.169 0.045,-0.169 0.044,-0.169 0.043,-0.17 0.042,-0.17 0.041,-0.171 0.039,-0.17 0.039,-0.171 0.037,-0.171 0.036,-0.172 0.035,-0.171 0.034,-0.172 0.033,-0.172 0.032,-0.172 0.03,-0.173 0.03,-0.172 0.028,-0.173 0.027,-0.173 0.026,-0.174 0.025,-0.173 0.024,-0.173 0.022,-0.174 0.022,-0.174 0.02,-0.174 0.019,-0.174 0.018,-0.174 0.018,-0.193 0.017,-0.193 0.016,-0.192 0.014,-0.193 0.013,-0.193 0.011,-0.193 0.01,-0.194 0.009,-0.193 0.007,-0.193 0.006,-0.193 0.004,-0.194 0.003,-0.193 10e-4,-0.194 V 67.457 L 78.861,67.263 78.858,67.07 78.854,66.877 78.848,66.683 78.841,66.49 78.833,66.297 78.823,66.104 78.812,65.911 78.799,65.718 78.785,65.525 78.77,65.332 78.753,65.139 78.735,64.947 78.715,64.754 78.694,64.562 78.671,64.37 78.647,64.178 78.622,63.986 78.59,63.758 78.556,63.529 78.52,63.302 78.481,63.074 78.441,62.847 78.399,62.62 78.355,62.394 78.309,62.168 78.261,61.942 78.211,61.717 78.16,61.492 78.106,61.268 78.05,61.044 l -0.057,-0.223 -0.06,-0.223 -0.061,-0.222 -0.064,-0.222 -0.065,-0.221 -0.067,-0.221 -0.069,-0.22 -0.071,-0.22 -0.072,-0.218 -0.075,-0.219 -0.076,-0.217 -0.079,-0.217 -0.08,-0.217 -0.082,-0.215 -0.083,-0.215 -0.086,-0.214 -0.087,-0.214 -0.09,-0.213 -0.09,-0.212 -0.059,-0.133 -0.059,-0.133 -0.06,-0.133 -0.06,-0.133 -0.061,-0.132 -0.062,-0.132 -0.063,-0.131 -0.063,-0.131 -0.064,-0.131 -0.064,-0.131 -0.066,-0.13 -0.066,-0.13 -0.066,-0.129 -0.067,-0.129 -0.137,-0.258 -0.139,-0.255 -0.142,-0.255 -0.144,-0.253 -0.147,-0.251 -0.149,-0.25 -0.152,-0.248 -0.154,-0.247 -0.157,-0.246 -0.159,-0.244 -0.162,-0.242 -0.164,-0.24 -0.166,-0.239 -0.169,-0.238 -0.171,-0.236 -0.173,-0.234 -0.176,-0.232 -0.177,-0.231 -0.18,-0.229 -0.182,-0.227 -0.185,-0.226 -0.186,-0.224 -0.188,-0.222 -0.191,-0.22 -0.192,-0.219 -0.191,-0.211 -0.192,-0.21 -0.193,-0.208 -0.196,-0.207 -0.197,-0.205 -0.2,-0.202 -0.201,-0.202 -0.203,-0.199 -0.204,-0.198 -0.206,-0.196 -0.208,-0.194 -0.21,-0.192 -0.211,-0.191 -0.213,-0.189 -0.214,-0.186 -0.216,-0.186 -0.233,-0.196 -0.234,-0.194 -0.236,-0.192 -0.238,-0.189 -0.239,-0.188 -0.241,-0.185 -0.242,-0.184 -0.244,-0.181 -0.245,-0.179 -0.247,-0.177 -0.248,-0.175 -0.25,-0.173 -0.251,-0.171 -0.252,-0.168 -0.254,-0.167 -0.255,-0.164 -0.257,-0.163 -0.258,-0.16 -0.259,-0.158 -0.26,-0.156 -0.262,-0.154 -0.263,-0.152 -0.264,-0.15 -0.265,-0.147 -0.267,-0.146 -0.268,-0.143 -0.268,-0.142 -0.27,-0.139 -0.271,-0.138 -0.272,-0.135 -0.273,-0.133 -0.274,-0.131 -0.276,-0.129 -0.276,-0.127 -0.277,-0.125 -0.278,-0.123 -0.279,-0.12 -0.28,-0.119 -0.28,-0.117 -0.282,-0.114 -0.282,-0.113 -0.284,-0.11 -0.284,-0.109 -0.284,-0.106 -0.286,-0.105 -0.286,-0.102 -0.287,-0.1 -0.288,-0.098 -0.288,-0.096 -0.29,-0.094 -0.289,-0.093 -0.291,-0.09 -0.29,-0.088 L 53.95,38.327 53.658,38.243 53.366,38.162 53.072,38.082 52.779,38.004 52.485,37.928 52.19,37.854 51.896,37.782 51.6,37.713 51.305,37.645 51.008,37.579 50.655,37.503 50.3,37.43 49.946,37.36 49.59,37.293 49.234,37.228 48.878,37.167 48.521,37.108 48.164,37.052 47.878,37.009 47.593,36.968 47.307,36.929 47.021,36.891 46.734,36.856 46.448,36.822 46.161,36.79 45.874,36.76 45.587,36.731 45.3,36.704 45.012,36.679 44.725,36.656 44.437,36.634 44.149,36.615 43.861,36.596 43.573,36.58 43.307,36.567 43.041,36.555 42.775,36.545 42.509,36.536 42.242,36.529 41.976,36.523 41.71,36.518 41.444,36.514 H 11.647 L 11.643,6.876 V 6.787 L 11.645,6.699 11.648,6.611 11.652,6.522 11.657,6.435 11.663,6.347 11.67,6.26 11.678,6.173 11.688,6.087 11.698,6.001 11.709,5.915 11.722,5.829 11.736,5.744 11.75,5.659 11.766,5.575 11.782,5.491 11.8,5.407 11.819,5.323 11.839,5.24 11.859,5.158 11.881,5.076 11.904,4.994 11.927,4.912 11.952,4.832 11.978,4.751 12.004,4.671 12.032,4.591 12.06,4.512 12.089,4.433 12.12,4.355 12.151,4.277 12.183,4.2 12.216,4.123 12.25,4.046 12.285,3.971 12.321,3.895 12.358,3.82 l 0.037,-0.074 0.038,-0.074 0.04,-0.073 0.04,-0.073 0.041,-0.072 0.042,-0.072 0.042,-0.071 0.044,-0.071 0.044,-0.07 0.045,-0.069 0.046,-0.069 0.047,-0.069 0.047,-0.067 0.049,-0.067 0.049,-0.067 0.05,-0.066 0.05,-0.065 0.052,-0.065 0.052,-0.064 0.053,-0.063 0.054,-0.063 0.054,-0.062 0.055,-0.061 0.056,-0.061 0.057,-0.06 0.057,-0.059 0.058,-0.059 0.058,-0.058 0.06,-0.057 0.06,-0.057 0.061,-0.056 0.061,-0.055 0.062,-0.054 0.063,-0.054 0.063,-0.053 0.064,-0.052 0.065,-0.051 0.065,-0.051 0.066,-0.05 0.066,-0.049 0.067,-0.048 0.068,-0.048 0.068,-0.047 0.069,-0.046 0.07,-0.045 0.07,-0.044 0.07,-0.043 0.072,-0.043 0.071,-0.042 0.073,-0.041 0.072,-0.04 0.074,-0.039 0.074,-0.039 0.074,-0.037 0.075,-0.037 0.075,-0.036 0.076,-0.035 0.077,-0.034 0.077,-0.033 0.077,-0.032 0.078,-0.031 0.078,-0.03 0.079,-0.03 0.079,-0.028 0.08,-0.028 0.08,-0.026 0.08,-0.026 0.081,-0.024 0.082,-0.024 0.081,-0.023 0.083,-0.022 0.082,-0.02 0.083,-0.02 L 17.05,0.157 17.133,0.14 17.217,0.123 17.302,0.107 17.387,0.093 17.472,0.079 17.557,0.067 17.643,0.055 17.73,0.045 17.816,0.036 17.903,0.027 17.99,0.02 18.077,0.014 18.165,0.009 18.253,0.005 18.342,0.002 18.43,0.001 18.519,0 h 237.95 z M 26.644,15 l 0.001,6.514 h 14.911 l 0.408,0.006 0.326,0.006 0.331,0.008 0.339,0.009 0.344,0.011 0.351,0.014 0.357,0.015 0.36,0.018 0.381,0.022 0.379,0.024 0.379,0.026 0.379,0.028 0.379,0.031 0.378,0.033 0.379,0.035 0.379,0.038 0.379,0.04 0.378,0.042 0.378,0.045 0.379,0.047 0.379,0.05 0.378,0.051 0.377,0.054 0.384,0.058 0.468,0.073 0.473,0.078 0.473,0.082 0.473,0.086 0.472,0.089 0.471,0.094 0.472,0.097 0.467,0.1 0.399,0.088 0.395,0.091 0.394,0.093 0.394,0.096 0.393,0.099 0.393,0.101 0.393,0.104 0.393,0.107 0.392,0.11 0.392,0.112 0.391,0.116 0.391,0.118 0.389,0.121 0.391,0.124 0.39,0.127 0.389,0.13 0.387,0.132 0.388,0.135 0.388,0.139 0.386,0.141 0.386,0.144 0.385,0.147 0.385,0.15 0.385,0.153 0.383,0.156 0.381,0.159 0.382,0.162 0.383,0.165 0.379,0.168 0.379,0.171 0.38,0.174 0.377,0.177 0.376,0.18 0.376,0.183 0.375,0.187 0.375,0.19 0.373,0.193 0.371,0.195 0.371,0.199 0.369,0.202 0.37,0.205 0.368,0.209 0.365,0.211 0.365,0.215 0.364,0.218 0.364,0.222 0.361,0.224 0.359,0.227 0.36,0.232 0.357,0.234 0.356,0.238 0.354,0.241 0.353,0.244 0.352,0.248 0.35,0.251 0.349,0.255 0.345,0.257 0.345,0.261 0.344,0.265 0.342,0.268 0.338,0.27 0.339,0.276 0.336,0.278 0.331,0.279 0.315,0.27 0.31,0.27 0.307,0.272 0.305,0.276 0.304,0.279 0.303,0.283 0.299,0.283 0.297,0.288 0.297,0.292 0.293,0.293 0.291,0.296 0.29,0.301 0.287,0.303 0.287,0.308 0.283,0.309 0.279,0.312 0.285,0.322 0.283,0.328 0.281,0.331 0.276,0.331 0.275,0.337 0.272,0.339 0.267,0.34 0.266,0.346 0.261,0.346 0.26,0.35 0.257,0.355 0.253,0.357 0.251,0.36 0.245,0.361 0.242,0.362 0.241,0.369 0.238,0.373 0.234,0.373 0.229,0.375 0.226,0.379 0.224,0.383 0.221,0.387 0.215,0.387 0.212,0.389 0.2,0.376 0.11,0.212 0.103,0.2 0.103,0.204 0.1,0.199 0.097,0.195 0.098,0.201 0.099,0.205 0.095,0.202 0.095,0.202 0.096,0.207 0.095,0.208 0.091,0.202 0.088,0.199 0.095,0.218 0.139,0.323 0.138,0.328 0.134,0.329 0.133,0.333 0.13,0.333 0.127,0.335 0.124,0.336 0.122,0.336 0.118,0.337 0.116,0.34 0.112,0.338 0.11,0.339 0.109,0.347 0.104,0.343 0.1,0.341 0.099,0.345 0.095,0.345 0.093,0.346 0.09,0.35 0.087,0.351 0.083,0.347 0.082,0.352 0.078,0.352 0.074,0.349 0.072,0.357 0.069,0.354 0.066,0.354 0.063,0.358 0.059,0.355 0.057,0.359 0.054,0.359 0.049,0.351 0.041,0.308 0.037,0.301 0.036,0.301 0.033,0.305 0.031,0.302 0.028,0.296 0.027,0.306 0.024,0.302 0.023,0.302 0.02,0.307 0.017,0.297 0.015,0.302 0.014,0.307 0.011,0.302 0.008,0.302 0.007,0.302 0.004,0.303 0.002,0.302 v 0.302 l -0.002,0.307 -0.005,0.302 -0.006,0.303 -0.009,0.302 -0.011,0.302 -0.014,0.307 -0.016,0.302 -0.017,0.297 -0.02,0.307 -0.023,0.302 -0.024,0.301 -0.027,0.306 -0.028,0.293 -0.029,0.28 -0.03,0.274 -0.031,0.268 -0.034,0.278 -0.035,0.273 -0.038,0.273 -0.039,0.273 -0.04,0.267 -0.042,0.268 -0.044,0.272 -0.047,0.277 -0.048,0.267 -0.049,0.266 -0.052,0.271 -0.053,0.271 -0.054,0.266 -0.057,0.266 -0.059,0.27 -0.059,0.265 -0.063,0.27 -0.063,0.264 -0.065,0.264 -0.067,0.264 -0.068,0.264 -0.072,0.269 -0.072,0.262 -0.073,0.263 -0.076,0.262 -0.076,0.258 -0.079,0.261 -0.082,0.267 -0.082,0.26 -0.091,0.279 -0.093,0.281 -0.094,0.276 -0.095,0.276 -0.1,0.28 -0.099,0.274 -0.102,0.275 -0.104,0.273 -0.105,0.274 -0.108,0.272 -0.109,0.273 -0.112,0.271 -0.112,0.267 -0.113,0.266 -0.116,0.266 -0.119,0.269 -0.121,0.268 -0.121,0.264 -0.122,0.26 -0.124,0.262 -0.127,0.262 -0.129,0.261 -0.128,0.257 -0.131,0.256 -0.136,0.263 -0.134,0.255 -0.134,0.251 -0.139,0.257 -0.14,0.253 -0.141,0.252 -0.143,0.251 -0.148,0.255 -0.192,0.327 -0.198,0.33 -0.199,0.325 -0.202,0.323 -0.205,0.323 -0.21,0.323 -0.209,0.317 -0.213,0.315 -0.216,0.316 -0.216,0.309 -0.219,0.308 -0.222,0.306 -0.224,0.305 -0.227,0.303 -0.23,0.301 -0.231,0.297 -0.231,0.293 -0.234,0.292 -0.239,0.292 -0.239,0.288 -0.24,0.285 -0.244,0.285 -0.245,0.281 -0.247,0.279 -0.25,0.277 -0.251,0.274 -0.251,0.27 -0.255,0.27 -0.258,0.269 -0.257,0.264 -0.261,0.263 -0.257,0.256 -0.217,0.213 -0.213,0.206 -0.211,0.202 -0.216,0.204 -0.216,0.201 -0.215,0.199 -0.216,0.197 -0.221,0.198 -0.218,0.194 -0.22,0.193 -0.221,0.192 -0.223,0.191 -0.223,0.189 -0.222,0.186 -0.225,0.186 -0.226,0.184 -0.225,0.182 -0.227,0.181 -0.229,0.18 -0.228,0.178 -0.23,0.177 -0.229,0.174 -0.229,0.172 -0.233,0.173 -0.235,0.172 -0.23,0.167 -0.233,0.167 -0.235,0.167 -0.236,0.164 -0.234,0.162 -0.237,0.162 -0.239,0.161 -0.235,0.157 -0.24,0.158 -0.239,0.156 -0.238,0.153 -0.24,0.152 -0.241,0.152 -0.242,0.15 -0.241,0.148 -0.242,0.146 -0.245,0.147 -0.243,0.144 -0.244,0.142 -0.245,0.141 -0.243,0.139 -0.245,0.137 -0.248,0.138 -0.248,0.136 -0.246,0.134 -0.246,0.132 -0.248,0.131 -0.25,0.131 -0.25,0.128 -0.249,0.127 -0.249,0.125 -0.25,0.124 -0.251,0.123 -0.251,0.122 -0.251,0.12 -0.253,0.119 -0.251,0.117 -0.253,0.116 -0.254,0.115 -0.254,0.113 -0.257,0.114 -0.256,0.111 -0.255,0.11 -0.257,0.109 -0.257,0.107 -0.257,0.106 -0.258,0.104 -0.258,0.104 -0.257,0.101 -0.259,0.101 -0.259,0.099 -0.26,0.099 -0.259,0.096 -0.259,0.095 -0.261,0.094 -0.261,0.093 -0.26,0.091 -0.261,0.09 -0.263,0.09 -0.261,0.087 -0.261,0.086 -0.262,0.085 -0.262,0.083 -0.263,0.083 -0.262,0.081 -0.262,0.079 -0.265,0.079 -0.263,0.077 -0.263,0.076 -0.265,0.075 -0.264,0.073 -0.263,0.072 -0.265,0.071 -0.265,0.07 -0.265,0.068 -0.264,0.067 -0.265,0.066 -0.266,0.065 -0.266,0.063 -0.264,0.062 -0.267,0.061 -0.265,0.059 -0.266,0.059 -0.267,0.057 -0.267,0.056 -0.266,0.055 -0.266,0.053 -0.266,0.052 -0.267,0.051 -0.266,0.05 -0.268,0.049 -0.267,0.047 -0.267,0.046 -0.267,0.045 -0.268,0.044 -0.266,0.042 -0.269,0.042 -0.268,0.04 -0.266,0.039 -0.268,0.038 -0.268,0.036 -0.268,0.036 -0.27,0.034 -0.309,0.038 -0.311,0.037 -0.31,0.035 -0.279,0.03 0.155,0.068 0.45,0.2 0.451,0.203 0.45,0.204 0.448,0.205 0.448,0.207 0.448,0.208 0.445,0.209 0.445,0.211 0.445,0.212 0.444,0.215 0.442,0.215 0.442,0.217 0.44,0.218 0.439,0.22 0.44,0.222 0.437,0.223 0.437,0.225 0.436,0.226 0.435,0.228 0.434,0.23 0.432,0.231 0.431,0.233 0.431,0.234 0.431,0.237 0.429,0.238 0.427,0.239 0.427,0.242 0.426,0.243 0.424,0.244 0.424,0.247 0.423,0.248 0.421,0.25 0.419,0.252 0.419,0.253 0.419,0.256 0.417,0.258 0.414,0.258 0.415,0.261 0.414,0.263 0.412,0.265 0.411,0.267 0.41,0.268 0.408,0.27 0.408,0.273 0.406,0.275 0.404,0.275 0.403,0.278 0.403,0.28 0.402,0.283 0.399,0.284 0.398,0.285 0.397,0.289 0.396,0.29 0.395,0.292 0.392,0.294 0.392,0.297 0.39,0.298 0.389,0.3 0.387,0.303 0.385,0.304 0.385,0.307 0.383,0.309 0.382,0.311 0.381,0.314 0.377,0.314 0.377,0.317 0.375,0.32 0.375,0.322 0.372,0.324 0.371,0.326 0.369,0.329 0.367,0.33 0.366,0.333 0.365,0.335 0.362,0.336 0.361,0.34 0.36,0.342 0.357,0.344 0.356,0.346 0.353,0.348 0.352,0.35 0.351,0.354 0.349,0.355 0.346,0.357 0.346,0.36 0.343,0.362 0.341,0.364 0.339,0.367 0.338,0.369 0.335,0.371 0.333,0.373 0.334,0.378 0.329,0.377 0.327,0.38 0.326,0.383 0.324,0.385 0.321,0.388 0.319,0.388 0.318,0.393 0.316,0.395 0.313,0.396 0.312,0.4 0.308,0.401 0.308,0.404 0.304,0.405 0.303,0.408 0.3,0.411 0.299,0.413 0.296,0.415 0.293,0.418 0.292,0.419 0.288,0.422 0.289,0.427 0.284,0.426 0.282,0.428 0.28,0.432 0.277,0.432 0.276,0.436 0.273,0.44 0.271,0.441 0.267,0.441 0.266,0.446 0.264,0.448 0.261,0.449 0.258,0.451 0.256,0.455 0.254,0.457 0.25,0.457 0.249,0.461 0.246,0.464 0.244,0.467 0.241,0.467 0.238,0.469 0.237,0.473 0.233,0.474 0.23,0.476 0.229,0.479 0.226,0.481 0.223,0.484 0.22,0.485 0.218,0.488 0.215,0.489 0.213,0.492 0.21,0.493 0.208,0.497 0.205,0.5 0.201,0.5 0.199,0.501 0.197,0.505 0.195,0.509 0.192,0.51 0.188,0.509 0.186,0.513 0.184,0.517 0.181,0.52 0.178,0.519 0.175,0.521 0.173,0.525 0.17,0.527 0.168,0.528 0.164,0.529 0.162,0.533 0.16,0.536 0.156,0.537 0.154,0.538 0.151,0.543 0.148,0.542 0.146,0.546 0.143,0.548 0.14,0.549 0.137,0.552 0.135,0.554 0.132,0.555 0.129,0.558 0.126,0.56 0.124,0.563 0.121,0.564 0.118,0.565 0.116,0.571 0.113,0.57 0.11,0.573 0.108,0.575 0.104,0.575 0.102,0.581 0.099,0.581 0.097,0.583 0.072,0.45 h 9.885 l 10.878,-0.001 11.549,-0.001 11.548,-0.003 10.877,-0.003 9.534,-0.006 h 0.342 l 0.071,-0.442 0.097,-0.583 0.099,-0.581 0.102,-0.581 0.105,-0.575 0.107,-0.575 0.111,-0.573 0.113,-0.571 0.116,-0.569 0.118,-0.566 0.121,-0.563 0.124,-0.562 0.127,-0.561 0.13,-0.558 0.131,-0.554 0.136,-0.556 0.137,-0.552 0.14,-0.548 0.144,-0.548 0.146,-0.546 0.148,-0.542 0.151,-0.541 0.154,-0.54 0.157,-0.536 0.159,-0.533 0.162,-0.534 0.165,-0.531 0.167,-0.527 0.171,-0.529 0.173,-0.523 0.175,-0.521 0.179,-0.521 0.18,-0.517 0.184,-0.515 0.187,-0.515 0.189,-0.511 0.191,-0.507 0.194,-0.508 0.197,-0.505 0.2,-0.503 0.203,-0.501 0.204,-0.498 0.207,-0.495 0.211,-0.496 0.213,-0.491 0.215,-0.49 0.218,-0.487 0.221,-0.485 0.223,-0.484 0.226,-0.479 0.228,-0.48 0.232,-0.477 0.233,-0.473 0.235,-0.472 0.239,-0.469 0.241,-0.469 0.244,-0.465 0.246,-0.463 0.249,-0.461 0.25,-0.457 0.254,-0.457 0.257,-0.455 0.259,-0.453 0.26,-0.448 0.263,-0.447 0.266,-0.445 0.269,-0.444 0.271,-0.44 0.272,-0.437 0.275,-0.436 0.278,-0.434 0.281,-0.432 0.282,-0.429 0.284,-0.426 0.287,-0.424 0.29,-0.423 0.291,-0.419 0.294,-0.417 0.295,-0.415 0.298,-0.412 0.302,-0.412 0.303,-0.409 0.304,-0.405 0.307,-0.403 0.31,-0.402 0.312,-0.4 0.313,-0.396 0.314,-0.392 0.317,-0.392 0.321,-0.391 0.322,-0.388 0.323,-0.384 0.326,-0.383 0.328,-0.381 0.33,-0.378 0.331,-0.375 0.334,-0.374 0.335,-0.371 0.337,-0.368 0.341,-0.368 0.34,-0.363 0.343,-0.362 0.346,-0.36 0.346,-0.356 0.349,-0.356 0.351,-0.353 0.352,-0.351 0.353,-0.348 0.357,-0.347 0.357,-0.343 0.359,-0.341 0.361,-0.34 0.362,-0.336 0.365,-0.336 0.366,-0.332 0.367,-0.33 0.369,-0.328 0.371,-0.327 0.373,-0.324 0.372,-0.321 0.376,-0.319 0.378,-0.318 0.378,-0.315 0.38,-0.313 0.381,-0.311 0.383,-0.308 0.385,-0.308 0.386,-0.304 0.387,-0.303 0.389,-0.3 0.39,-0.298 0.392,-0.296 0.393,-0.294 0.393,-0.292 0.396,-0.29 0.398,-0.289 0.398,-0.286 0.399,-0.283 0.402,-0.283 0.402,-0.28 0.403,-0.278 0.405,-0.275 0.406,-0.275 0.407,-0.272 0.409,-0.271 0.41,-0.268 0.41,-0.266 0.413,-0.265 0.414,-0.263 0.413,-0.26 0.415,-0.259 0.418,-0.258 0.419,-0.256 0.418,-0.253 0.419,-0.251 0.422,-0.25 0.423,-0.249 0.423,-0.246 0.424,-0.245 0.426,-0.243 0.427,-0.241 0.427,-0.239 0.43,-0.238 0.43,-0.237 0.429,-0.233 0.433,-0.234 0.433,-0.231 0.433,-0.229 0.436,-0.228 0.434,-0.226 0.438,-0.225 0.438,-0.223 0.438,-0.221 0.439,-0.22 0.442,-0.219 0.441,-0.217 0.442,-0.215 0.443,-0.214 0.445,-0.213 0.445,-0.21 0.445,-0.209 0.448,-0.209 0.448,-0.206 0.448,-0.205 0.45,-0.204 0.451,-0.202 0.451,-0.201 0.053,-0.023 -0.265,-0.026 -0.344,-0.036 -0.345,-0.037 -0.346,-0.04 -0.344,-0.041 -0.345,-0.044 -0.34,-0.045 -0.277,-0.037 -0.271,-0.039 -0.272,-0.039 -0.271,-0.041 -0.27,-0.042 -0.272,-0.044 -0.272,-0.044 -0.271,-0.046 -0.271,-0.047 -0.27,-0.048 -0.271,-0.05 -0.271,-0.051 -0.271,-0.052 -0.27,-0.053 -0.27,-0.055 -0.279,-0.057 -0.394,-0.084 -0.403,-0.089 -0.404,-0.091 -0.403,-0.095 -0.402,-0.097 -0.401,-0.1 -0.402,-0.103 -0.402,-0.106 -0.401,-0.108 -0.4,-0.112 -0.401,-0.115 -0.399,-0.117 -0.398,-0.12 -0.4,-0.124 -0.398,-0.127 -0.397,-0.129 -0.398,-0.132 -0.397,-0.136 -0.395,-0.138 -0.396,-0.141 -0.394,-0.145 -0.393,-0.147 -0.395,-0.151 -0.392,-0.154 -0.392,-0.156 -0.392,-0.16 -0.39,-0.163 -0.391,-0.166 -0.388,-0.169 -0.388,-0.173 -0.388,-0.175 -0.385,-0.179 -0.385,-0.182 -0.385,-0.185 -0.383,-0.188 -0.383,-0.192 -0.383,-0.195 -0.379,-0.198 -0.378,-0.201 -0.379,-0.205 -0.378,-0.208 -0.375,-0.211 -0.374,-0.214 -0.374,-0.218 -0.373,-0.222 -0.371,-0.225 -0.369,-0.228 -0.369,-0.232 -0.367,-0.235 -0.364,-0.237 -0.365,-0.242 -0.363,-0.246 -0.359,-0.248 -0.36,-0.252 -0.357,-0.256 -0.356,-0.259 -0.356,-0.264 -0.351,-0.265 -0.35,-0.269 -0.351,-0.275 -0.347,-0.276 -0.344,-0.28 -0.343,-0.284 -0.339,-0.286 -0.315,-0.269 -0.308,-0.269 -0.308,-0.273 -0.306,-0.277 -0.303,-0.277 -0.303,-0.284 -0.3,-0.285 -0.297,-0.286 -0.297,-0.292 -0.294,-0.295 -0.293,-0.298 -0.29,-0.301 -0.286,-0.302 -0.285,-0.306 -0.285,-0.311 -0.282,-0.315 -0.282,-0.32 -0.283,-0.327 -0.281,-0.331 -0.277,-0.333 -0.274,-0.336 -0.271,-0.338 -0.268,-0.342 -0.265,-0.344 -0.262,-0.346 -0.26,-0.352 -0.257,-0.354 -0.252,-0.355 -0.249,-0.358 -0.247,-0.363 -0.243,-0.364 -0.241,-0.369 -0.237,-0.371 -0.233,-0.373 -0.23,-0.377 -0.225,-0.376 -0.224,-0.383 -0.219,-0.385 -0.216,-0.387 -0.214,-0.394 -0.199,-0.374 -0.111,-0.214 -0.102,-0.199 -0.099,-0.194 -0.102,-0.204 -0.1,-0.201 -0.098,-0.201 -0.099,-0.205 -0.093,-0.196 -0.095,-0.203 -0.096,-0.207 -0.094,-0.207 -0.092,-0.203 -0.09,-0.204 -0.095,-0.218 -0.136,-0.318 -0.138,-0.328 -0.136,-0.332 -0.133,-0.333 -0.129,-0.331 -0.128,-0.338 -0.124,-0.335 -0.122,-0.336 -0.118,-0.337 -0.115,-0.338 -0.114,-0.341 -0.11,-0.343 -0.108,-0.343 -0.103,-0.34 -0.102,-0.344 -0.099,-0.349 -0.095,-0.345 -0.093,-0.346 -0.09,-0.351 -0.086,-0.347 -0.085,-0.351 -0.081,-0.352 -0.077,-0.349 -0.076,-0.357 -0.071,-0.353 -0.069,-0.353 -0.066,-0.358 -0.063,-0.355 -0.06,-0.359 -0.056,-0.355 -0.053,-0.359 -0.051,-0.358 -0.039,-0.301 -0.038,-0.301 -0.036,-0.306 -0.032,-0.301 -0.031,-0.301 -0.029,-0.301 -0.026,-0.297 -0.024,-0.306 -0.022,-0.302 -0.02,-0.302 -0.017,-0.301 -0.016,-0.302 -0.013,-0.307 -0.011,-0.297 -0.009,-0.303 -0.006,-0.302 -0.004,-0.302 -0.003,-0.307 10e-4,-0.302 0.002,-0.302 0.004,-0.302 0.007,-0.302 0.009,-0.303 0.011,-0.302 0.014,-0.302 0.015,-0.301 0.018,-0.307 0.02,-0.302 0.022,-0.302 0.025,-0.301 0.026,-0.302 0.029,-0.297 0.029,-0.285 0.032,-0.292 0.033,-0.281 0.035,-0.282 0.037,-0.286 0.039,-0.281 0.042,-0.285 0.042,-0.281 0.045,-0.281 0.047,-0.285 0.048,-0.275 0.05,-0.28 0.054,-0.284 0.054,-0.28 0.056,-0.278 0.059,-0.279 0.059,-0.274 0.062,-0.278 0.064,-0.278 0.066,-0.278 0.067,-0.277 0.069,-0.273 0.072,-0.277 0.073,-0.276 0.074,-0.271 0.078,-0.276 0.079,-0.275 0.079,-0.266 0.083,-0.274 0.085,-0.274 0.084,-0.265 0.088,-0.27 0.085,-0.254 0.083,-0.247 0.086,-0.246 0.087,-0.247 0.088,-0.245 0.09,-0.245 0.092,-0.245 0.093,-0.244 0.095,-0.244 0.096,-0.244 0.098,-0.243 0.098,-0.238 0.099,-0.237 0.102,-0.242 0.104,-0.241 0.104,-0.236 0.105,-0.236 0.108,-0.239 0.109,-0.235 0.107,-0.23 0.111,-0.234 0.115,-0.237 0.114,-0.233 0.113,-0.227 0.117,-0.232 0.119,-0.231 0.119,-0.231 0.12,-0.226 0.12,-0.225 0.124,-0.228 0.124,-0.225 0.132,-0.237 0.196,-0.345 0.203,-0.348 0.206,-0.347 0.211,-0.348 0.211,-0.342 0.216,-0.341 0.217,-0.338 0.221,-0.336 0.224,-0.334 0.226,-0.33 0.229,-0.329 0.23,-0.324 0.235,-0.325 0.236,-0.321 0.238,-0.316 0.24,-0.315 0.245,-0.315 0.247,-0.311 0.247,-0.307 0.251,-0.306 0.252,-0.301 0.256,-0.301 0.257,-0.298 0.259,-0.294 0.262,-0.293 0.265,-0.292 0.266,-0.287 0.266,-0.283 0.272,-0.284 0.273,-0.281 0.273,-0.276 0.27,-0.268 0.218,-0.214 0.212,-0.206 0.214,-0.204 0.215,-0.203 0.216,-0.202 0.215,-0.198 0.217,-0.197 0.218,-0.196 0.218,-0.194 0.222,-0.195 0.222,-0.193 0.22,-0.188 0.223,-0.189 0.225,-0.188 0.223,-0.185 0.225,-0.183 0.226,-0.182 0.226,-0.181 0.228,-0.179 0.229,-0.179 0.229,-0.176 0.229,-0.174 0.232,-0.174 0.233,-0.173 0.23,-0.169 0.232,-0.169 0.236,-0.168 0.232,-0.165 0.236,-0.164 0.236,-0.164 0.235,-0.16 0.237,-0.16 0.237,-0.158 0.24,-0.158 0.238,-0.155 0.24,-0.154 0.24,-0.153 0.24,-0.151 0.242,-0.15 0.242,-0.148 0.241,-0.146 0.242,-0.145 0.245,-0.145 0.244,-0.143 0.243,-0.14 0.246,-0.14 0.246,-0.138 0.245,-0.136 0.248,-0.137 0.247,-0.133 0.247,-0.133 0.248,-0.131 0.247,-0.129 0.249,-0.129 0.25,-0.127 0.25,-0.126 0.25,-0.124 0.251,-0.123 0.252,-0.122 0.251,-0.12 0.251,-0.118 0.252,-0.117 0.253,-0.116 0.252,-0.114 0.256,-0.115 0.257,-0.113 0.253,-0.111 0.257,-0.11 0.258,-0.109 0.257,-0.107 0.257,-0.106 0.258,-0.105 0.258,-0.103 0.257,-0.102 0.259,-0.1 0.259,-0.1 0.26,-0.098 0.259,-0.096 0.26,-0.096 0.261,-0.094 0.259,-0.092 0.261,-0.092 0.262,-0.09 0.261,-0.089 0.262,-0.088 0.262,-0.086 0.261,-0.084 0.263,-0.084 0.262,-0.082 0.262,-0.081 0.264,-0.08 0.263,-0.079 0.263,-0.077 0.265,-0.076 0.263,-0.075 0.265,-0.073 0.264,-0.072 0.263,-0.071 0.265,-0.069 0.266,-0.069 0.265,-0.067 0.265,-0.066 0.265,-0.064 0.265,-0.064 0.266,-0.062 0.266,-0.061 0.265,-0.059 0.266,-0.059 0.267,-0.057 0.266,-0.056 0.266,-0.054 0.267,-0.054 0.267,-0.052 0.267,-0.051 0.266,-0.05 0.267,-0.049 0.267,-0.047 0.267,-0.046 0.268,-0.045 0.267,-0.044 0.267,-0.042 0.268,-0.042 0.268,-0.04 0.267,-0.039 0.268,-0.038 0.267,-0.036 0.268,-0.036 0.271,-0.034 0.308,-0.038 0.31,-0.037 0.311,-0.035 0.311,-0.033 0.311,-0.032 0.311,-0.03 0.311,-0.029 0.311,-0.027 0.311,-0.026 0.311,-0.024 0.311,-0.022 0.311,-0.021 0.312,-0.019 0.311,-0.018 0.31,-0.016 0.314,-0.015 0.291,-0.012 0.287,-0.011 0.28,-0.009 0.275,-0.007 0.269,-0.006 0.273,-0.006 0.577,-0.009 h 15.605 V 15 Z m 118.996,22.341 0.254,0.003 0.259,0.007 0.268,0.009 0.277,0.013 0.283,0.017 0.291,0.021 0.299,0.025 0.31,0.031 0.317,0.036 0.327,0.043 0.339,0.049 0.347,0.057 0.353,0.064 0.364,0.073 0.38,0.084 0.384,0.094 0.393,0.104 0.406,0.117 0.413,0.13 0.422,0.143 0.432,0.159 0.439,0.174 0.44,0.189 0.452,0.207 0.452,0.224 0.457,0.243 0.464,0.264 0.456,0.279 0.459,0.3 0.462,0.324 0.45,0.338 0.435,0.348 0.439,0.376 0.435,0.398 0.41,0.402 0.401,0.421 0.39,0.437 0.374,0.448 0.351,0.452 0.338,0.464 0.323,0.476 0.299,0.473 0.279,0.474 0.264,0.482 0.25,0.49 0.221,0.47 0.207,0.473 0.196,0.485 0.175,0.472 0.156,0.455 0.143,0.457 0.131,0.457 0.114,0.439 0.103,0.439 0.091,0.43 0.08,0.421 0.07,0.42 0.059,0.403 0.05,0.394 0.043,0.4 0.035,0.385 0.027,0.376 0.037,0.675 v 50.924 l 0.056,0.015 0.476,0.144 0.479,0.158 0.484,0.175 0.49,0.193 0.497,0.213 0.494,0.229 0.497,0.248 0.503,0.273 0.495,0.289 0.49,0.308 0.491,0.331 0.483,0.351 0.469,0.366 0.464,0.387 0.445,0.4 0.436,0.419 0.423,0.436 0.398,0.439 0.383,0.453 0.361,0.458 0.345,0.469 0.327,0.476 0.304,0.476 0.287,0.482 0.26,0.47 0.242,0.469 0.23,0.482 0.205,0.462 0.185,0.451 0.171,0.451 0.157,0.448 0.14,0.433 0.127,0.43 0.112,0.417 0.098,0.393 0.091,0.406 0.079,0.393 0.066,0.359 0.062,0.373 0.051,0.36 0.045,0.344 0.037,0.341 0.031,0.318 0.026,0.323 0.021,0.319 0.016,0.298 0.011,0.286 0.008,0.291 0.005,0.28 0.001,0.228 v 10.895 l -0.001,0.228 -0.005,0.28 -0.008,0.291 -0.011,0.286 -0.016,0.298 -0.021,0.319 -0.026,0.324 -0.031,0.318 -0.037,0.34 -0.045,0.345 -0.051,0.36 -0.062,0.372 -0.066,0.36 -0.079,0.392 -0.091,0.407 -0.098,0.393 -0.112,0.416 -0.127,0.43 -0.14,0.435 -0.157,0.447 -0.171,0.449 -0.185,0.452 -0.205,0.463 -0.23,0.482 -0.243,0.47 -0.259,0.468 -0.287,0.482 -0.304,0.476 -0.327,0.477 -0.346,0.469 -0.36,0.457 -0.382,0.453 -0.399,0.44 -0.423,0.436 -0.436,0.419 -0.447,0.401 -0.462,0.386 -0.469,0.366 -0.481,0.349 -0.491,0.332 -0.494,0.31 -0.493,0.288 -0.501,0.271 -0.499,0.25 -0.496,0.23 -0.495,0.211 -0.488,0.193 -0.488,0.176 -0.479,0.158 -0.474,0.143 -0.466,0.128 -0.456,0.112 -0.453,0.101 -0.444,0.087 -0.434,0.076 -0.428,0.065 -0.417,0.055 -0.411,0.046 -0.405,0.038 -0.394,0.029 -0.39,0.022 -0.383,0.015 -0.374,0.008 -0.314,0.003 h -40.989 l -0.314,-0.003 -0.374,-0.008 -0.382,-0.015 -0.39,-0.022 -0.395,-0.029 -0.404,-0.038 -0.41,-0.046 -0.419,-0.055 -0.427,-0.065 -0.435,-0.076 -0.445,-0.088 -0.451,-0.1 -0.456,-0.112 -0.466,-0.128 -0.475,-0.143 -0.478,-0.158 -0.489,-0.176 -0.488,-0.193 -0.491,-0.209 -0.5,-0.232 -0.502,-0.252 -0.498,-0.269 -0.493,-0.288 -0.494,-0.31 -0.491,-0.332 -0.481,-0.349 -0.469,-0.366 -0.462,-0.386 -0.447,-0.401 -0.436,-0.419 -0.423,-0.436 -0.398,-0.44 -0.383,-0.453 -0.36,-0.457 -0.346,-0.469 -0.327,-0.477 -0.304,-0.476 -0.287,-0.482 -0.259,-0.468 -0.243,-0.47 -0.23,-0.482 -0.205,-0.463 -0.185,-0.452 -0.171,-0.449 -0.156,-0.447 -0.14,-0.435 -0.125,-0.421 -0.115,-0.425 -0.099,-0.403 -0.088,-0.387 -0.081,-0.402 -0.067,-0.369 -0.06,-0.363 -0.052,-0.36 -0.044,-0.345 -0.038,-0.34 -0.03,-0.318 -0.027,-0.324 -0.02,-0.31 -0.017,-0.306 -0.011,-0.295 -0.008,-0.274 -0.005,-0.289 -0.001,-0.236 V 124.3 l 0.001,-0.237 0.005,-0.288 0.008,-0.274 0.011,-0.295 0.017,-0.307 0.02,-0.31 0.027,-0.323 0.03,-0.318 0.038,-0.341 0.044,-0.345 0.051,-0.35 0.06,-0.372 0.07,-0.379 0.079,-0.392 0.088,-0.388 0.099,-0.402 0.115,-0.426 0.125,-0.42 0.14,-0.435 0.156,-0.447 0.171,-0.449 0.186,-0.453 0.205,-0.463 0.225,-0.471 0.246,-0.48 0.266,-0.478 0.281,-0.473 0.304,-0.476 0.322,-0.469 0.344,-0.468 0.367,-0.466 0.389,-0.46 0.398,-0.438 0.417,-0.43 0.436,-0.419 0.446,-0.4 0.463,-0.387 0.469,-0.366 0.481,-0.349 0.491,-0.332 0.494,-0.31 0.495,-0.289 0.498,-0.27 0.498,-0.249 0.497,-0.231 0.496,-0.212 0.492,-0.193 0.482,-0.175 0.479,-0.158 0.474,-0.143 0.469,-0.128 0.458,-0.113 0.449,-0.1 0.445,-0.088 0.215,-0.037 v -5.967 l -0.025,-0.004 -0.429,-0.079 -0.435,-0.089 -0.446,-0.103 -0.456,-0.117 -0.462,-0.13 -0.472,-0.147 -0.478,-0.163 -0.489,-0.181 -0.491,-0.199 -0.498,-0.218 -0.503,-0.24 -0.503,-0.259 -0.501,-0.279 -0.503,-0.302 -0.502,-0.326 -0.494,-0.344 -0.484,-0.363 -0.479,-0.387 -0.464,-0.402 -0.452,-0.421 -0.436,-0.436 -0.416,-0.448 -0.404,-0.467 -0.384,-0.475 -0.361,-0.482 -0.336,-0.481 -0.317,-0.489 -0.293,-0.487 -0.275,-0.491 -0.256,-0.493 -0.233,-0.485 -0.211,-0.476 -0.19,-0.464 -0.175,-0.461 -0.16,-0.457 -0.141,-0.443 -0.126,-0.429 -0.116,-0.432 -0.099,-0.408 -0.087,-0.393 -0.079,-0.397 -0.068,-0.381 -0.06,-0.374 -0.049,-0.352 -0.044,-0.346 -0.036,-0.34 -0.029,-0.318 -0.026,-0.322 -0.019,-0.31 -0.016,-0.304 -0.011,-0.293 -0.007,-0.273 -0.005,-0.286 -0.001,-0.236 V 70.636 l 0.001,-0.236 0.005,-0.286 0.007,-0.273 0.011,-0.293 0.016,-0.304 0.019,-0.309 0.026,-0.322 0.029,-0.319 0.036,-0.34 0.044,-0.346 0.049,-0.351 0.06,-0.376 0.068,-0.38 0.079,-0.396 0.087,-0.393 0.099,-0.408 0.116,-0.433 0.126,-0.429 0.141,-0.443 0.16,-0.457 0.175,-0.461 0.19,-0.464 0.211,-0.476 0.233,-0.484 0.256,-0.494 0.275,-0.49 0.293,-0.487 0.317,-0.489 0.337,-0.483 0.36,-0.481 0.382,-0.474 0.407,-0.469 0.415,-0.446 0.434,-0.435 0.454,-0.423 0.464,-0.402 0.479,-0.387 0.484,-0.363 0.494,-0.344 0.502,-0.326 0.503,-0.302 0.501,-0.279 0.503,-0.259 0.503,-0.239 0.498,-0.219 0.491,-0.199 0.489,-0.181 0.478,-0.163 0.472,-0.146 0.462,-0.131 0.456,-0.117 0.446,-0.102 0.435,-0.09 0.429,-0.079 0.385,-0.062 0.043,-0.224 0.089,-0.422 0.101,-0.431 0.117,-0.447 0.13,-0.457 0.144,-0.457 0.158,-0.464 0.176,-0.471 0.189,-0.469 0.207,-0.473 0.229,-0.486 0.245,-0.482 0.26,-0.474 0.284,-0.482 0.304,-0.481 0.318,-0.468 0.337,-0.464 0.357,-0.459 0.369,-0.441 0.384,-0.431 0.401,-0.421 0.421,-0.413 0.429,-0.393 0.433,-0.371 0.446,-0.358 0.451,-0.337 0.451,-0.316 0.458,-0.301 0.467,-0.285 0.459,-0.261 0.457,-0.243 0.453,-0.224 0.447,-0.206 0.448,-0.192 0.436,-0.172 0.431,-0.159 0.426,-0.145 0.409,-0.128 0.404,-0.116 0.395,-0.105 0.387,-0.094 0.376,-0.083 0.363,-0.073 0.355,-0.065 0.347,-0.057 0.339,-0.049 0.327,-0.043 0.318,-0.036 0.309,-0.031 0.299,-0.025 0.291,-0.021 0.283,-0.017 0.278,-0.013 0.268,-0.009 0.258,-0.007 0.255,-0.003 0.213,-10e-4 h 12.86 z M 132.602,52.34 h -0.105 l -0.103,0.002 -0.102,0.002 -0.101,0.004 -0.1,0.004 -0.099,0.006 -0.097,0.007 -0.096,0.008 -0.095,0.01 -0.093,0.01 -0.092,0.012 -0.091,0.014 -0.09,0.014 -0.088,0.016 -0.087,0.018 -0.086,0.019 -0.084,0.02 -0.083,0.022 -0.082,0.024 -0.08,0.025 -0.079,0.027 -0.077,0.028 -0.076,0.03 -0.075,0.032 -0.073,0.034 -0.071,0.035 -0.07,0.038 -0.069,0.039 -0.067,0.041 -0.066,0.043 -0.064,0.044 -0.062,0.047 -0.062,0.049 -0.059,0.051 -0.058,0.053 -0.056,0.056 -0.055,0.057 -0.053,0.059 -0.052,0.062 -0.049,0.064 -0.049,0.067 -0.046,0.068 -0.045,0.071 -0.043,0.074 -0.042,0.076 -0.04,0.078 -0.038,0.081 -0.036,0.083 -0.035,0.086 -0.033,0.088 -0.031,0.091 -0.029,0.094 -0.028,0.097 -0.026,0.099 -0.024,0.102 -0.022,0.105 -0.02,0.107 -0.019,0.11 -0.016,0.114 -0.015,0.116 -0.013,0.119 -0.011,0.122 -0.009,0.126 -0.007,0.128 -0.001,0.23 -0.003,0.227 -0.006,0.224 -0.007,0.221 -0.009,0.217 -0.011,0.215 -0.014,0.211 -0.015,0.209 -0.017,0.205 -0.019,0.203 -0.021,0.199 -0.023,0.197 -0.024,0.193 -0.026,0.191 -0.029,0.188 -0.029,0.185 -0.032,0.182 -0.033,0.179 -0.035,0.177 -0.036,0.173 -0.038,0.171 -0.04,0.169 -0.041,0.165 -0.043,0.163 -0.044,0.16 -0.046,0.158 -0.047,0.154 -0.049,0.153 -0.05,0.149 -0.051,0.147 -0.053,0.145 -0.054,0.142 -0.055,0.14 -0.057,0.137 -0.057,0.134 -0.059,0.133 -0.061,0.129 -0.061,0.128 -0.062,0.125 -0.064,0.122 -0.065,0.121 -0.066,0.118 -0.066,0.116 -0.068,0.113 -0.069,0.111 -0.07,0.109 -0.07,0.107 -0.072,0.105 -0.072,0.102 -0.073,0.101 -0.075,0.098 -0.074,0.096 -0.076,0.094 -0.077,0.092 -0.077,0.09 -0.078,0.088 -0.078,0.086 -0.079,0.084 -0.08,0.083 -0.08,0.08 -0.081,0.078 -0.082,0.077 -0.081,0.074 -0.083,0.073 -0.083,0.071 -0.083,0.069 -0.084,0.067 -0.084,0.066 -0.084,0.064 -0.085,0.062 -0.085,0.061 -0.086,0.059 -0.085,0.057 -0.086,0.055 -0.086,0.054 -0.086,0.053 -0.087,0.051 -0.086,0.049 -0.087,0.048 -0.086,0.046 -0.087,0.045 -0.087,0.044 -0.087,0.042 -0.086,0.04 -0.087,0.04 -0.086,0.038 -0.087,0.036 -0.086,0.035 -0.086,0.034 -0.086,0.033 -0.086,0.031 -0.085,0.031 -0.085,0.029 -0.085,0.027 -0.085,0.027 -0.084,0.026 -0.084,0.024 -0.083,0.023 -0.083,0.022 -0.083,0.022 -0.082,0.02 -0.081,0.019 -0.081,0.018 -0.081,0.017 -0.08,0.016 -0.079,0.015 -0.079,0.015 -0.078,0.013 -0.154,0.024 -0.151,0.021 -0.147,0.018 -0.145,0.015 -0.141,0.012 -0.137,0.01 -0.133,0.007 -0.129,0.005 -0.124,0.003 -0.12,10e-4 h -2.901 l -0.14,0.001 -0.138,0.003 -0.134,0.004 -0.131,0.007 -0.127,0.009 -0.125,0.01 -0.121,0.013 -0.119,0.014 -0.115,0.017 -0.113,0.018 -0.109,0.02 -0.107,0.022 -0.104,0.024 -0.101,0.026 -0.098,0.027 -0.095,0.03 -0.092,0.031 -0.09,0.034 -0.087,0.035 -0.085,0.037 -0.081,0.039 -0.08,0.041 -0.076,0.042 -0.075,0.045 -0.071,0.046 -0.069,0.049 -0.067,0.05 -0.065,0.052 -0.062,0.054 -0.059,0.055 -0.058,0.058 -0.055,0.059 -0.053,0.061 -0.051,0.063 -0.049,0.065 -0.046,0.067 -0.044,0.068 -0.043,0.071 -0.04,0.072 -0.039,0.074 -0.036,0.075 -0.034,0.078 -0.033,0.079 -0.031,0.082 -0.029,0.083 -0.027,0.084 -0.025,0.087 -0.024,0.088 -0.022,0.09 -0.02,0.092 -0.019,0.094 -0.017,0.095 -0.015,0.098 -0.014,0.099 -0.013,0.1 -0.011,0.103 -0.009,0.104 -0.009,0.106 -0.007,0.108 -0.005,0.11 -0.004,0.111 -0.003,0.113 -0.002,0.115 -0.001,0.116 v 10.681 l 0.001,0.116 0.002,0.115 0.003,0.113 0.004,0.112 0.005,0.109 0.007,0.108 0.009,0.106 0.009,0.104 0.011,0.103 0.013,0.101 0.014,0.099 0.015,0.097 0.017,0.095 0.019,0.094 0.02,0.092 0.022,0.09 0.024,0.088 0.025,0.087 0.027,0.085 0.029,0.083 0.031,0.081 0.033,0.079 0.034,0.078 0.036,0.076 0.039,0.073 0.04,0.073 0.043,0.07 0.044,0.068 0.046,0.067 0.049,0.065 0.051,0.063 0.053,0.061 0.055,0.059 0.058,0.058 0.059,0.056 0.062,0.053 0.065,0.052 0.067,0.051 0.069,0.048 0.071,0.046 0.075,0.045 0.076,0.042 0.08,0.041 0.081,0.039 0.085,0.037 0.087,0.036 0.09,0.033 0.092,0.031 0.095,0.03 0.098,0.028 0.101,0.025 0.104,0.024 0.107,0.022 0.109,0.02 0.113,0.019 0.115,0.016 0.119,0.014 0.121,0.013 0.125,0.01 0.127,0.009 0.131,0.007 0.134,0.005 0.138,0.003 0.14,10e-4 h 11.208 v 35.337 H 117.57 l -0.14,0.001 -0.138,0.003 -0.134,0.005 -0.131,0.008 -0.127,0.009 -0.125,0.012 -0.121,0.013 -0.119,0.016 -0.115,0.018 -0.113,0.019 -0.109,0.022 -0.107,0.023 -0.104,0.026 -0.101,0.028 -0.098,0.029 -0.095,0.032 -0.092,0.033 -0.09,0.035 -0.087,0.038 -0.085,0.039 -0.081,0.041 -0.08,0.043 -0.076,0.044 -0.075,0.047 -0.071,0.049 -0.069,0.05 -0.067,0.052 -0.065,0.054 -0.062,0.055 -0.059,0.058 -0.058,0.059 -0.055,0.061 -0.053,0.063 -0.051,0.064 -0.049,0.066 -0.046,0.068 -0.044,0.069 -0.043,0.072 -0.04,0.072 -0.039,0.075 -0.036,0.076 -0.034,0.078 -0.033,0.079 -0.031,0.081 -0.029,0.083 -0.027,0.084 -0.025,0.086 -0.024,0.087 -0.022,0.089 -0.02,0.09 -0.019,0.092 -0.017,0.094 -0.015,0.094 -0.014,0.097 -0.013,0.098 -0.011,0.099 -0.009,0.101 -0.009,0.102 -0.007,0.104 -0.005,0.105 -0.004,0.106 -0.003,0.108 -0.002,0.109 -0.001,0.111 v 10.812 l 0.001,0.11 0.002,0.11 0.003,0.108 0.004,0.106 0.005,0.105 0.007,0.104 0.009,0.102 0.009,0.101 0.011,0.099 0.013,0.098 0.014,0.096 0.015,0.095 0.017,0.094 0.019,0.091 0.02,0.091 0.022,0.089 0.024,0.087 0.025,0.086 0.027,0.084 0.029,0.082 0.031,0.081 0.033,0.08 0.034,0.078 0.037,0.076 0.038,0.074 0.04,0.073 0.043,0.071 0.044,0.07 0.047,0.068 0.048,0.066 0.051,0.064 0.053,0.063 0.055,0.061 0.058,0.059 0.059,0.057 0.062,0.056 0.065,0.054 0.067,0.052 0.069,0.05 0.071,0.049 0.075,0.046 0.076,0.045 0.08,0.043 0.081,0.041 0.085,0.039 0.087,0.037 0.09,0.036 0.092,0.033 0.095,0.032 0.098,0.029 0.101,0.028 0.104,0.025 0.107,0.024 0.109,0.022 0.113,0.019 0.115,0.018 0.119,0.015 0.121,0.014 0.125,0.011 0.127,0.01 0.131,0.007 0.134,0.005 0.138,0.004 0.14,0.001 h 40.875 l 0.141,-0.001 0.137,-0.004 0.134,-0.005 0.131,-0.007 0.128,-0.01 0.124,-0.011 0.122,-0.014 0.118,-0.015 0.116,-0.018 0.112,-0.019 0.11,-0.022 0.106,-0.024 0.104,-0.025 0.101,-0.028 0.098,-0.029 0.095,-0.032 0.093,-0.033 0.09,-0.036 0.087,-0.037 0.084,-0.039 0.082,-0.041 0.079,-0.043 0.077,-0.045 0.074,-0.046 0.072,-0.049 0.069,-0.05 0.067,-0.052 0.064,-0.054 0.062,-0.056 0.06,-0.057 0.057,-0.059 0.056,-0.061 0.052,-0.063 0.051,-0.064 0.049,-0.066 0.046,-0.068 0.045,-0.07 0.042,-0.071 0.041,-0.073 0.038,-0.074 0.036,-0.076 0.035,-0.078 0.032,-0.08 0.031,-0.081 0.029,-0.082 0.027,-0.084 0.026,-0.086 0.023,-0.087 0.022,-0.089 0.02,-0.091 0.019,-0.091 0.017,-0.094 0.016,-0.095 0.014,-0.096 0.012,-0.098 0.011,-0.099 0.01,-0.101 0.008,-0.102 0.007,-0.104 0.006,-0.105 0.004,-0.106 0.003,-0.108 0.002,-0.11 v -0.11 -10.812 -0.111 l -0.002,-0.109 -0.003,-0.108 -0.004,-0.106 -0.006,-0.105 -0.007,-0.104 -0.008,-0.102 -0.01,-0.101 -0.011,-0.099 -0.012,-0.098 -0.014,-0.097 -0.016,-0.094 -0.017,-0.094 -0.019,-0.092 -0.02,-0.09 -0.022,-0.089 -0.023,-0.087 -0.026,-0.086 -0.027,-0.084 -0.029,-0.083 -0.031,-0.081 -0.032,-0.079 -0.035,-0.078 -0.036,-0.076 -0.038,-0.075 -0.041,-0.072 -0.042,-0.072 -0.045,-0.069 -0.046,-0.068 -0.049,-0.066 -0.051,-0.065 -0.052,-0.062 -0.056,-0.061 -0.057,-0.059 -0.06,-0.058 -0.062,-0.055 -0.064,-0.054 -0.067,-0.052 -0.069,-0.051 -0.072,-0.048 -0.074,-0.047 -0.077,-0.044 -0.079,-0.043 -0.082,-0.041 -0.084,-0.039 -0.087,-0.038 -0.09,-0.035 -0.093,-0.033 -0.095,-0.032 -0.098,-0.029 -0.101,-0.028 -0.104,-0.026 -0.106,-0.023 -0.11,-0.022 -0.112,-0.019 -0.116,-0.018 -0.118,-0.016 -0.122,-0.013 -0.124,-0.012 -0.128,-0.009 -0.131,-0.008 -0.134,-0.005 -0.137,-0.003 -0.141,-0.001 h -9.23 V 55.768 l -0.007,-0.128 -0.009,-0.126 -0.011,-0.122 -0.013,-0.119 -0.014,-0.116 -0.017,-0.114 -0.018,-0.11 -0.021,-0.107 -0.022,-0.105 -0.024,-0.102 -0.026,-0.099 -0.027,-0.097 -0.03,-0.094 -0.031,-0.091 -0.033,-0.088 -0.034,-0.086 -0.037,-0.083 -0.038,-0.081 -0.04,-0.078 -0.041,-0.076 -0.044,-0.074 -0.044,-0.071 -0.047,-0.068 -0.048,-0.067 -0.05,-0.064 -0.052,-0.062 -0.053,-0.059 -0.055,-0.057 -0.056,-0.056 -0.058,-0.053 -0.059,-0.051 -0.061,-0.049 -0.063,-0.047 -0.064,-0.044 -0.066,-0.043 -0.067,-0.041 -0.068,-0.039 -0.07,-0.038 -0.072,-0.035 -0.073,-0.034 -0.075,-0.032 -0.076,-0.03 -0.077,-0.028 -0.079,-0.027 -0.08,-0.025 -0.081,-0.024 -0.083,-0.022 -0.085,-0.02 -0.085,-0.019 -0.087,-0.018 -0.089,-0.016 -0.089,-0.014 -0.091,-0.014 -0.093,-0.012 -0.093,-0.01 -0.095,-0.01 -0.096,-0.008 -0.097,-0.007 -0.099,-0.006 -0.099,-0.004 -0.101,-0.004 -0.103,-0.002 -0.103,-0.002 h -0.104 z"
             inkscape:connector-curvature="0"
             style="fill:#666666" />
        </g>
      </g>
    </g>
  </g>
</svg>
